<svg version="1.1" id="Layer_1" xmlns="http://www.w3.org/2000/svg" xmlns:xlink="http://www.w3.org/1999/xlink" x="0px" y="0px"
	 width="100%" viewBox="0 0 1178 1178" enable-background="new 0 0 1178 1178" xml:space="preserve">
<path fill="#FEFEFE" opacity="1.000000" stroke="none" 
	d="
M971.000000,1.000001 
	C1040.316040,1.000000 1109.631958,1.000000 1178.973999,1.000000 
	C1178.973999,393.551056 1178.973999,786.102112 1178.973999,1179.000000 
	C1074.975342,1179.000000 970.950317,1179.000000 866.631409,1178.691650 
	C874.717224,1175.611938 876.169556,1166.388672 874.598877,1156.290039 
	C871.887146,1156.290039 869.163452,1156.290039 866.059937,1156.290039 
	C866.059937,1159.746216 866.346619,1162.920898 865.924072,1165.998047 
	C865.745850,1167.295410 864.071960,1168.387329 863.078003,1169.572632 
	C861.928772,1168.570923 860.389160,1167.769775 859.741516,1166.510254 
	C859.110474,1165.282715 859.297363,1163.586914 859.288330,1162.095581 
	C859.245056,1154.930420 859.218140,1147.764648 859.262878,1140.599609 
	C859.294006,1135.612305 859.231628,1130.605225 859.699951,1125.653198 
	C859.821533,1124.367310 861.776733,1123.254761 862.889648,1122.062622 
	C863.938416,1123.340454 865.680664,1124.513062 865.893555,1125.917480 
	C866.355591,1128.964966 866.036011,1132.130981 866.036011,1135.356201 
	C869.338379,1135.356201 872.066345,1135.356201 875.009766,1135.356201 
	C875.009766,1131.710815 875.285217,1128.368774 874.952454,1125.088501 
	C874.255554,1118.218262 870.532166,1113.882080 865.018555,1112.983887 
	C856.332275,1111.568970 850.031433,1116.692627 849.860657,1125.760376 
	C849.644226,1137.254517 850.024780,1148.762085 849.695618,1160.251099 
	C849.473633,1168.001099 850.535095,1174.823120 858.000000,1179.000000 
	C572.390320,1179.000000 286.780670,1179.000000 1.085510,1179.000000 
	C1.085510,786.333313 1.085510,393.666687 1.089656,1.000003 
	C33.087444,1.000000 65.081085,1.000000 97.443115,1.460415 
	C97.804794,2.253856 97.792191,2.586881 97.792191,2.919907 
	C97.791199,369.114899 97.790688,735.309875 97.803116,1101.504883 
	C97.803162,1102.994019 97.989067,1104.483032 97.852554,1106.093262 
	C97.763504,1106.662598 97.910065,1107.110596 98.056625,1107.558716 
	C98.383331,1107.116333 98.710045,1106.673950 99.357040,1106.161621 
	C100.104263,1106.138550 100.531219,1106.185303 101.014130,1106.570312 
	C103.870949,1107.251099 106.671486,1107.885498 109.472717,1107.888550 
	C127.157013,1107.908203 144.841660,1107.808105 162.525314,1107.651611 
	C163.368073,1107.644165 164.202774,1106.727539 165.459412,1106.164062 
	C167.571320,1106.141479 169.265045,1106.189331 171.011566,1106.544678 
	C172.056686,1106.646362 173.049011,1106.440674 174.458908,1106.156860 
	C176.570480,1106.131958 178.264481,1106.185181 179.987595,1106.515259 
	C180.692123,1106.610474 181.367538,1106.428833 182.358185,1106.165283 
	C183.101181,1106.138428 183.528931,1106.193604 184.072266,1106.623535 
	C186.733398,1107.309448 189.277527,1107.875488 191.824692,1107.889526 
	C207.116028,1107.973877 222.408035,1107.931519 238.211502,1107.931519 
	C237.521652,1106.846558 236.958893,1105.961548 236.306000,1104.744629 
	C236.291458,1103.964722 236.367065,1103.516602 236.735321,1103.015137 
	C236.831894,1101.951172 236.635803,1100.940918 236.349976,1099.624512 
	C236.320175,1098.901489 236.380081,1098.484741 236.799591,1097.930176 
	C237.416611,1096.032959 237.899216,1094.273438 237.899506,1092.513916 
	C237.932297,899.241516 237.929001,705.969055 237.927856,512.696655 
	C237.927795,503.699493 238.001602,494.701202 237.860916,485.706238 
	C237.835922,484.108032 236.920898,482.523743 236.314941,480.513245 
	C236.248459,478.369965 236.283875,476.646423 236.590836,474.617523 
	C236.904907,471.492737 237.320831,468.613953 236.884277,465.870789 
	C236.453094,463.161377 235.160126,460.589142 234.163116,457.519775 
	C234.106232,454.709595 234.131439,452.336334 234.428894,449.675415 
	C234.931168,446.753815 235.161179,444.119873 235.391190,441.485962 
	C237.218384,444.551208 237.852676,447.730896 239.061874,450.674438 
	C240.662155,454.569916 242.712280,458.280609 244.689957,462.426178 
	C244.845413,463.528992 244.879974,464.276367 244.643295,465.228363 
	C245.139679,466.640900 245.907303,467.848816 246.774139,469.377136 
	C246.869995,470.143036 246.866653,470.588531 246.614487,471.206451 
	C246.535812,475.133026 246.587677,478.937775 250.675323,481.390869 
	C250.789642,482.157349 250.747910,482.614655 250.457703,483.297424 
	C250.813690,485.964264 251.328934,488.431976 252.039352,490.842133 
	C254.212952,498.216217 256.382385,505.593262 258.700623,512.922546 
	C261.752625,522.571838 264.856873,532.207153 268.160828,541.771667 
	C268.724152,543.402466 270.399902,544.648987 271.689636,546.396606 
	C271.759277,547.176025 271.701019,547.631714 271.399475,548.345825 
	C271.736908,550.406738 272.318909,552.208801 272.898102,554.011780 
	C276.264374,564.490479 279.576752,574.987000 283.037689,585.434326 
	C283.794800,587.719849 285.081177,589.829956 286.249390,592.270142 
	C286.319824,592.882019 286.264679,593.244507 286.085876,593.971619 
	C286.718414,595.593689 287.474548,596.851196 288.383057,598.422974 
	C288.521973,599.195923 288.508606,599.654602 288.244690,600.263245 
	C286.236420,603.464539 288.563293,604.191772 290.745728,605.384216 
	C290.824097,606.156006 290.795868,606.605347 290.528595,607.256592 
	C291.102844,608.988159 291.916168,610.517761 292.832886,612.369751 
	C292.905579,613.140747 292.874908,613.589294 292.580139,614.277832 
	C292.238495,615.003418 291.975525,615.549194 292.110565,615.966003 
	C295.765411,627.248718 299.369690,638.549561 303.218658,649.766296 
	C304.102386,652.341675 305.851105,654.620178 307.325470,657.244019 
	C307.563599,657.779907 307.535461,658.094299 307.211517,658.777466 
	C307.877655,660.799133 308.697052,662.439270 309.663422,664.389832 
	C309.781128,665.155090 309.751831,665.609802 309.445892,666.195435 
	C307.094086,669.868164 310.254120,668.665344 311.772095,669.379883 
	C311.865509,670.146240 311.835724,670.595215 311.546570,671.282471 
	C310.768250,673.969177 310.520264,676.295288 313.857971,677.389160 
	C313.934540,678.214294 313.930267,678.690613 313.859741,679.518616 
	C314.447693,680.928040 315.101898,681.985779 315.850647,683.367432 
	C315.918793,684.138184 315.892334,684.585083 315.604492,685.259644 
	C318.303833,695.023376 321.239624,704.567261 324.294403,714.072998 
	C324.457733,714.581299 325.623230,714.767578 326.481689,715.451294 
	C326.658295,716.558105 326.675446,717.317322 326.444275,718.316711 
	C327.553009,722.054016 328.910034,725.551208 330.392212,729.250488 
	C330.620697,729.778442 330.578339,730.084106 330.238007,730.754639 
	C330.886353,732.454834 331.686981,733.769958 332.619629,735.393677 
	C332.737427,736.147827 332.723236,736.593262 332.369720,737.099976 
	C331.720612,737.879456 330.968170,738.769836 331.170105,739.289001 
	C333.000732,743.994934 334.965729,748.650330 337.000397,753.272522 
	C337.189148,753.701294 338.129944,753.798889 338.836029,754.409180 
	C338.934570,755.520447 338.918610,756.272827 338.639740,757.263733 
	C341.337189,767.134033 344.261475,776.777405 347.329559,786.374756 
	C347.563263,787.105713 348.815552,787.511047 349.710571,788.387207 
	C349.811493,789.156555 349.796234,789.606445 349.527557,790.251343 
	C348.217346,794.601501 349.286438,797.890869 353.312683,800.232056 
	C353.572540,800.756653 353.552795,801.071045 353.223663,801.791199 
	C353.924164,805.476807 354.930023,808.719177 355.597534,812.029785 
	C355.949493,813.775269 355.244049,815.810303 355.830688,817.417175 
	C357.321625,821.500916 359.161713,825.471497 361.096313,829.371155 
	C361.787506,830.764404 363.152008,831.823547 364.326782,833.258545 
	C364.397430,833.806946 364.350525,834.132080 364.162201,834.875732 
	C363.755524,840.199768 369.424469,845.002014 364.287231,850.041687 
	C365.042816,849.542358 365.798401,849.043091 365.964294,848.933411 
	C368.216644,852.439270 370.350616,855.760803 372.623047,859.396545 
	C372.744507,860.163818 372.727509,860.616821 372.471008,861.264160 
	C372.998901,862.664368 373.766266,863.870178 374.668427,865.390503 
	C374.786591,866.156616 374.769989,866.608398 374.494293,867.302734 
	C375.750183,872.850891 377.195312,878.177490 378.794983,883.457397 
	C381.870605,893.608887 384.962219,903.757263 388.249573,913.840942 
	C388.669312,915.128540 390.298889,916.021729 391.515472,917.413086 
	C391.642914,918.185059 391.622864,918.641663 391.364990,919.329956 
	C391.982941,921.059143 392.838715,922.556519 393.799133,924.377991 
	C393.863281,925.151245 393.822815,925.600525 393.527771,926.285095 
	C393.929718,929.627747 394.479431,932.765076 395.335938,935.816284 
	C395.500610,936.402954 396.869385,936.651672 397.784790,937.381226 
	C397.849304,938.155579 397.811707,938.604980 397.512604,939.280457 
	C399.459198,946.575195 401.635284,953.654236 403.933563,960.693359 
	C404.125183,961.280334 405.140503,961.598389 405.887299,962.360229 
	C405.970947,963.126404 405.940399,963.573792 405.656860,964.257874 
	C406.429169,968.243469 407.262146,972.059753 408.545441,975.718079 
	C409.440826,978.270508 410.953003,980.606689 412.324280,983.328186 
	C412.429626,984.036255 412.400330,984.455566 412.080139,985.015747 
	C412.666901,986.468689 413.544586,987.780762 414.563019,989.404053 
	C414.707367,990.166992 414.710999,990.618713 414.471069,991.280273 
	C415.053741,993.010437 415.880035,994.530762 416.807983,996.371643 
	C416.900482,997.138184 416.891388,997.584229 416.630676,998.222168 
	C417.152252,999.627136 417.925354,1000.840088 418.800537,1002.375000 
	C418.863037,1003.142090 418.823486,1003.587158 418.477692,1004.053101 
	C419.021515,1005.732239 419.871613,1007.390503 420.802490,1009.375488 
	C420.864349,1010.149048 420.845459,1010.595764 420.591736,1011.227661 
	C421.162994,1012.622070 421.969086,1013.831299 422.875580,1015.362671 
	C422.950958,1016.131226 422.925934,1016.577698 422.626648,1017.250000 
	C423.883026,1022.919495 425.308411,1028.395508 426.971924,1033.798218 
	C428.918396,1040.119751 430.446686,1046.695190 433.407379,1052.525269 
	C434.831024,1055.328613 432.721344,1060.023193 437.651306,1061.399414 
	C437.740997,1062.174927 437.715790,1062.627930 437.449890,1063.281250 
	C438.034973,1064.672852 438.860718,1065.864136 439.801605,1067.378174 
	C439.870911,1068.151367 439.825073,1068.601929 439.517700,1069.282715 
	C440.680908,1078.994629 446.612335,1087.680786 443.647217,1097.937866 
	C444.105896,1098.160767 444.564545,1098.383667 445.023224,1098.606445 
	C445.514832,1097.326538 446.006409,1096.046631 446.588470,1094.531250 
	C448.142487,1098.936646 449.005310,1102.220703 450.523407,1105.167114 
	C450.968903,1106.031860 453.273804,1105.938599 454.998352,1106.204590 
	C455.829346,1106.168579 456.388519,1106.212402 456.950378,1106.695557 
	C456.973816,1107.426880 456.994568,1107.718872 456.879272,1108.062378 
	C456.825165,1108.070679 456.907013,1108.027710 457.457947,1107.966064 
	C475.797058,1107.960571 493.667267,1107.997070 511.536865,1107.912720 
	C512.376343,1107.908813 513.210693,1106.828491 514.400879,1106.161377 
	C515.473083,1106.150879 516.191772,1106.228394 517.043701,1106.691162 
	C518.167419,1107.398315 519.157959,1107.720337 520.055237,1108.500488 
	C519.950684,1126.251099 519.861023,1143.544434 519.960999,1160.836426 
	C520.010620,1169.421875 525.127930,1175.137207 532.509216,1175.336548 
	C540.173279,1175.543701 545.567322,1169.938843 545.920349,1161.141235 
	C546.106384,1156.504639 545.955322,1151.854126 545.943604,1147.209961 
	C545.910889,1134.241699 545.871460,1121.273315 545.910950,1107.799438 
	C546.011841,1106.953857 546.036438,1106.613770 546.489624,1106.229980 
	C548.923706,1106.208130 550.929138,1106.230103 553.109863,1106.664062 
	C558.012451,1107.358765 562.737671,1107.731079 567.469055,1107.842163 
	C568.313599,1107.861938 569.183533,1106.799805 570.453003,1106.162476 
	C572.253723,1106.131958 573.643127,1106.176147 575.079956,1106.567383 
	C580.721619,1108.580566 578.904297,1104.096680 578.904846,1101.924561 
	C578.985291,794.182434 578.980469,486.440247 578.978882,178.698105 
	C578.978882,177.031952 579.063843,175.359024 578.944336,173.701141 
	C578.739624,170.862427 577.867249,168.784637 574.276184,169.753784 
	C573.025085,170.091446 571.635986,169.970337 570.309937,169.970612 
	C526.070190,169.979736 481.830414,169.978180 437.162109,169.978180 
	C437.081696,171.673340 436.907593,173.631378 436.907471,175.589417 
	C436.897949,314.714844 436.900635,453.840271 436.910187,592.965698 
	C436.910706,600.296692 436.812439,607.635193 437.138184,614.953308 
	C437.215363,616.686646 438.821747,618.351990 439.821838,620.492310 
	C439.992523,624.257385 440.066040,627.578674 439.992126,631.302673 
	C439.940643,633.127502 440.036621,634.549683 439.859833,636.172852 
	C439.372009,637.580078 439.156982,638.786194 438.941956,639.992371 
	C439.180084,640.084290 439.418243,640.176147 439.656403,640.268066 
	C440.110107,639.493164 440.563843,638.718323 441.230865,638.007568 
	C441.444183,638.071716 441.886108,638.014893 441.914825,638.455139 
	C441.985138,641.247009 442.026733,643.598694 441.916168,646.256042 
	C441.746124,647.016541 441.728302,647.471375 441.345032,647.973999 
	C440.504486,648.141846 440.029297,648.261841 439.298859,648.276001 
	C438.685211,648.114563 438.326843,648.059021 437.918152,647.629822 
	C437.750427,646.260986 437.633026,645.265808 437.644165,643.971741 
	C437.038147,642.661316 436.303528,641.649841 435.568237,640.304321 
	C435.465393,639.312927 435.363159,638.655518 435.460449,637.785645 
	C435.062439,636.719421 434.464935,635.865662 433.825836,634.664429 
	C433.726715,633.619934 433.669250,632.922913 433.741699,631.888794 
	C433.164307,630.372620 432.457001,629.193420 431.750610,627.710083 
	C431.732025,627.001038 431.712555,626.596130 431.819183,625.850464 
	C431.117340,624.231567 430.289398,622.953552 429.451477,621.395813 
	C429.409760,620.744507 429.377991,620.372864 429.557007,619.781006 
	C428.949646,618.292236 428.131439,617.023560 427.299774,615.408875 
	C427.219299,614.374878 427.152283,613.686951 427.276947,612.804443 
	C426.770844,611.644531 426.073059,610.679260 425.331970,609.429749 
	C425.241547,608.765076 425.194397,608.384583 425.345642,607.737793 
	C424.824493,604.994141 424.236328,602.469177 423.359222,600.048950 
	C421.290680,594.340881 419.084534,588.682739 416.918335,582.693481 
	C416.864136,581.969360 416.825592,581.556213 416.914368,580.790405 
	C416.290802,579.297791 415.539917,578.157959 414.775726,576.718140 
	C414.712372,576.021240 414.662323,575.624329 414.768677,574.892578 
	C414.117920,573.258301 413.310730,571.958801 412.484253,570.382812 
	C412.429688,569.738403 412.394379,569.370483 412.572632,568.770691 
	C412.116669,567.364197 411.447174,566.189697 410.729614,564.674011 
	C410.606384,563.648132 410.531219,562.963440 410.641113,561.968018 
	C409.996857,560.352600 409.167572,559.047852 408.324524,557.451294 
	C408.269409,556.772339 408.228088,556.385315 408.396301,555.787292 
	C407.809570,554.323669 407.013275,553.071045 406.198059,551.515015 
	C406.139648,550.808350 406.100189,550.405029 406.218567,549.726868 
	C403.968719,541.788574 401.630005,534.102417 399.114685,526.474426 
	C398.268768,523.909058 396.973999,521.491760 395.865234,518.697998 
	C395.818176,517.977905 395.790253,517.566467 395.888611,516.768127 
	C394.616882,513.257935 393.218903,510.134735 391.784851,506.666046 
	C391.693176,505.628601 391.637573,504.936646 391.705017,503.922668 
	C391.041077,502.294678 390.254150,500.988647 389.450592,499.402039 
	C389.399261,498.748322 389.364532,498.375153 389.548584,497.813446 
	C389.114990,496.754089 388.462616,495.883270 387.756989,494.639526 
	C387.644745,493.264862 387.585754,492.263123 387.659729,490.955872 
	C386.976471,489.679840 386.160187,488.709320 385.318237,487.395874 
	C385.233978,486.368317 385.175385,485.683655 385.322144,484.816040 
	C384.760864,483.692139 383.994232,482.751190 383.196167,481.437195 
	C383.064880,480.076416 382.965027,479.088684 382.942383,477.780701 
	C382.429169,476.905579 381.838684,476.350708 381.212769,475.447571 
	C381.143402,474.400299 381.109436,473.701263 381.243774,472.743469 
	C379.230255,466.659332 377.048462,460.833954 374.869385,454.701660 
	C374.823303,453.989380 374.774475,453.584015 374.837189,452.846161 
	C374.264587,451.678864 373.580414,450.844055 372.869446,449.657501 
	C372.788879,448.603302 372.735138,447.900787 372.812683,446.851318 
	C372.204071,445.343414 371.464111,444.182495 370.692566,442.679871 
	C370.558411,441.662537 370.455841,440.986847 370.524780,440.022705 
	C369.935455,438.723297 369.174591,437.712402 368.414429,436.417419 
	C368.384094,435.756653 368.353058,435.379913 368.522552,434.779358 
	C367.935883,433.278992 367.148712,432.002441 366.342590,430.383667 
	C366.253479,429.360596 366.183319,428.679718 366.304993,427.799072 
	C365.923523,426.738892 365.350189,425.878571 364.722046,424.677124 
	C364.600067,423.649353 364.532898,422.962677 364.629700,421.953552 
	C363.964325,420.340607 363.134979,419.050140 362.296326,417.465454 
	C362.247833,416.781708 362.208679,416.392212 362.361938,415.740021 
	C360.949768,410.225800 359.534271,404.906555 357.684540,399.742859 
	C356.012482,395.075256 353.865936,390.577637 351.894226,385.697784 
	C351.824585,384.979797 351.789337,384.569122 351.878784,383.801819 
	C351.259674,381.967987 350.515839,380.490814 349.750122,378.715454 
	C349.687683,378.020874 349.647095,377.624420 349.749817,376.864624 
	C349.139893,375.345428 348.386688,374.189545 347.610962,372.740601 
	C347.536346,372.059265 347.484192,371.670990 347.618896,370.925446 
	C346.328918,367.283997 344.852081,363.999847 343.335541,360.430695 
	C343.245697,359.765411 343.195557,359.385101 343.326385,358.728943 
	C342.547485,355.188324 341.741028,351.867737 340.580170,348.676025 
	C339.616394,346.026123 338.235504,343.527893 337.011963,340.572327 
	C334.820374,333.571136 332.617279,326.972565 330.501587,320.346069 
	C327.532349,311.045837 324.732452,301.690338 321.666626,292.422485 
	C318.583710,283.102936 315.165283,273.894440 312.074951,264.577271 
	C308.885925,254.962570 306.003571,245.246292 302.823700,235.628448 
	C299.674255,226.102646 296.283051,216.657074 293.069061,207.152237 
	C290.403839,199.270401 287.827576,191.358307 285.238770,183.450836 
	C282.851471,176.158829 280.477539,168.862320 278.138428,161.554749 
	C275.115417,152.110611 272.217957,142.625366 269.105713,133.210968 
	C266.663269,125.822701 263.830658,118.562401 261.435333,111.159843 
	C258.381439,101.722046 255.733780,92.152382 252.655716,82.722893 
	C248.660675,70.484322 244.405884,58.330631 240.278732,46.135044 
	C236.989395,36.415211 233.630966,26.717249 230.484909,16.951050 
	C228.792572,11.697609 227.482529,6.321023 226.000000,1.000001 
	C296.358246,1.000000 366.716461,1.000000 437.532501,1.468636 
	C437.990295,45.499882 437.990295,89.062492 437.990295,132.977585 
	C484.428589,132.977585 530.264160,132.977585 576.270508,132.977585 
	C576.400208,131.562836 576.596313,130.422073 576.596191,129.281357 
	C576.591980,87.993851 576.564819,46.706341 576.568665,5.418839 
	C576.568787,3.945881 576.849915,2.472949 577.000000,1.000002 
	C589.024902,1.000000 601.049805,1.000000 613.575439,1.467317 
	C614.076172,45.546257 614.076172,89.157883 614.076172,133.319641 
	C616.558960,133.319641 618.511414,133.319031 620.463867,133.319717 
	C694.458984,133.345871 768.454102,133.390808 842.449219,133.383316 
	C858.041931,133.381744 873.539246,133.365677 888.861511,137.438171 
	C898.201660,139.920670 906.687744,143.551102 914.239197,149.454712 
	C931.716675,163.118347 938.236450,182.570511 941.511414,203.260712 
	C943.194031,213.890778 943.271790,224.849014 943.277466,235.659363 
	C943.387268,444.313263 943.476990,652.967285 943.238403,861.620911 
	C943.215332,881.832092 942.161560,902.168152 933.232971,921.142029 
	C927.559082,933.199341 919.654541,943.114014 908.430054,950.216736 
	C894.257690,959.184814 878.193115,962.572083 861.898865,962.930908 
	C828.084412,963.675598 794.243530,963.173706 760.414368,963.349854 
	C756.276489,963.371399 756.513794,961.213745 756.514221,958.318420 
	C756.553162,705.167053 756.548157,452.015686 756.542480,198.864334 
	C756.542297,191.365326 756.350098,183.862396 756.542603,176.368881 
	C756.646362,172.330704 755.373474,170.983368 751.121277,170.998856 
	C706.791260,171.160431 662.460388,171.099945 618.129761,171.118423 
	C616.868286,171.118942 615.606995,171.311951 614.328552,171.416595 
	C614.328552,483.030487 614.328552,794.274780 614.328552,1106.070923 
	C620.721191,1106.070923 626.834045,1106.071045 632.946960,1106.070923 
	C683.442139,1106.070679 733.943665,1106.572266 784.430664,1105.928711 
	C834.826172,1105.286377 885.289246,1108.808960 935.609497,1103.851440 
	C943.395325,1103.084229 951.335938,1101.906250 958.719910,1099.456299 
	C974.012329,1094.382080 988.857300,1088.312988 1002.523438,1079.297119 
	C1021.919861,1066.500854 1037.858521,1050.405762 1050.641846,1031.286865 
	C1062.821777,1013.070435 1071.710083,993.202942 1076.287720,971.627502 
	C1079.049805,958.608643 1082.318848,945.628967 1083.946655,932.457092 
	C1085.575195,919.279846 1085.995605,905.885376 1086.002197,892.585693 
	C1086.113403,669.432678 1086.120361,446.279510 1085.992310,223.126495 
	C1085.981689,204.493546 1084.977661,185.855148 1084.145996,167.232208 
	C1083.880737,161.293533 1083.006226,155.330460 1081.825928,149.496857 
	C1080.239380,141.656189 1078.318848,133.863510 1076.116699,126.171921 
	C1073.338013,116.466103 1070.878296,106.566055 1066.954834,97.312012 
	C1058.470093,77.299332 1047.099487,59.002735 1031.978027,43.153481 
	C1017.709473,28.198168 1001.821838,15.543890 982.893372,6.935739 
	C978.862732,5.102722 974.961060,2.986009 971.000000,1.000001 
M693.584045,1161.496826 
	C693.584045,1157.292725 693.584045,1153.088623 693.584045,1148.884521 
	C694.240906,1148.803467 694.897705,1148.722534 695.554565,1148.641602 
	C698.649109,1157.422729 699.101257,1166.871826 701.098511,1176.008545 
	C704.386536,1176.008545 707.461670,1176.008545 710.919006,1176.008545 
	C709.064026,1166.386230 707.206909,1157.155762 705.572449,1147.885742 
	C705.292969,1146.300903 705.423035,1144.167114 706.288086,1142.936523 
	C711.025635,1136.197876 710.884583,1128.817017 709.207336,1121.393677 
	C707.675964,1114.615967 703.070435,1110.811523 696.197998,1110.199097 
	C692.277222,1109.849731 688.299805,1110.135986 684.103027,1110.135986 
	C684.103027,1132.293701 684.103027,1154.141602 684.103027,1176.091309 
	C687.287476,1176.091309 690.209717,1176.091309 693.592163,1176.091309 
	C693.592163,1171.393311 693.592163,1166.941772 693.584045,1161.496826 
M339.564819,1143.499634 
	C339.564819,1152.584229 339.564819,1161.668823 339.564819,1170.789795 
	C342.940186,1170.789795 345.711914,1170.789795 349.014160,1170.789795 
	C349.014160,1161.543091 349.014160,1152.486206 349.014160,1143.470703 
	C351.623322,1143.470703 353.681030,1143.470703 356.162109,1143.470703 
	C356.162109,1152.717773 356.162109,1161.637573 356.162109,1170.758667 
	C359.340851,1170.758667 362.084534,1170.758667 364.923218,1170.758667 
	C364.923218,1149.498901 364.923218,1128.484985 364.923218,1107.466797 
	C361.823212,1107.466797 359.087006,1107.466797 355.981232,1107.466797 
	C355.981232,1116.242065 355.981232,1124.663940 355.981232,1133.343750 
	C353.539581,1133.343750 351.471710,1133.343750 348.856873,1133.343750 
	C348.856873,1124.629761 348.856873,1116.072266 348.856873,1107.379761 
	C345.553680,1107.379761 342.796753,1107.379761 339.564850,1107.379761 
	C339.564850,1119.251709 339.564850,1130.875610 339.564819,1143.499634 
M1014.996155,1175.453491 
	C1014.996155,1166.681030 1014.996155,1157.908569 1014.996155,1149.197021 
	C1017.833496,1149.197021 1020.068848,1149.197021 1022.648193,1149.197021 
	C1022.648193,1158.313232 1022.648193,1167.100098 1022.648193,1175.871948 
	C1025.891724,1175.871948 1028.764282,1175.871948 1031.595947,1175.871948 
	C1031.595947,1154.709839 1031.595947,1133.958496 1031.595947,1113.052490 
	C1028.519775,1113.052490 1025.733643,1113.052490 1022.300415,1113.052490 
	C1022.300415,1121.772949 1022.300415,1130.320435 1022.300415,1138.866577 
	C1019.579346,1138.866577 1017.509949,1138.866577 1015.035522,1138.866577 
	C1015.035522,1130.117798 1015.035522,1121.690552 1015.035522,1113.195312 
	C1011.736389,1113.195312 1008.859375,1113.195312 1005.988892,1113.195312 
	C1005.988892,1134.304688 1005.988892,1155.080811 1005.988892,1176.322021 
	C1008.958984,1176.322021 1011.728088,1176.322021 1014.996155,1175.453491 
M157.328796,1155.404053 
	C157.685898,1159.191772 157.525345,1163.121704 158.517929,1166.734863 
	C160.122787,1172.576782 164.677673,1175.481812 170.481781,1175.306274 
	C176.163666,1175.134399 180.542908,1171.812134 181.704498,1165.844360 
	C182.512726,1161.691895 182.299789,1157.340820 182.557907,1152.818359 
	C179.307571,1152.818359 176.729141,1152.818359 173.777435,1152.818359 
	C173.777435,1155.900513 174.149521,1158.781738 173.638702,1161.496948 
	C173.329483,1163.140381 171.652130,1164.526611 170.589478,1166.028320 
	C169.406326,1164.490845 167.233444,1162.976685 167.196671,1161.412231 
	C166.903198,1148.927612 166.905563,1136.431519 167.142197,1123.945068 
	C167.171066,1122.421387 169.123779,1120.933960 170.184952,1119.429810 
	C171.380310,1120.990112 173.255005,1122.409058 173.615906,1124.142944 
	C174.194641,1126.923706 173.771011,1129.912964 173.771011,1132.611816 
	C177.102448,1132.611816 179.533051,1132.611816 182.192261,1132.611816 
	C182.192261,1128.709229 182.624832,1125.004150 182.087708,1121.445312 
	C181.340805,1116.496704 179.128601,1112.328491 173.663284,1110.818359 
	C164.819504,1108.374878 157.707321,1114.112915 157.433121,1124.450317 
	C157.168213,1134.437134 157.345245,1144.435669 157.328796,1155.404053 
M354.518219,824.350830 
	C354.673798,824.391479 354.832336,824.472290 354.984039,824.460938 
	C355.120850,824.450684 355.372192,824.318420 355.364868,824.276001 
	C355.171478,823.158386 354.951019,822.045471 354.735168,820.931763 
	C354.557007,820.960144 354.378876,820.988586 354.200714,821.016968 
	C354.200714,821.957581 354.200714,822.898132 354.518219,824.350830 
M378.094635,895.268311 
	C378.234924,895.549866 378.375214,895.831360 378.515533,896.112915 
	C378.506927,895.373108 378.498291,894.633301 378.489655,893.893494 
	C378.357574,894.181885 378.225494,894.470215 378.094635,895.268311 
M396.908844,945.727600 
	C396.767914,945.445923 396.626984,945.164246 396.486053,944.882568 
	C396.495026,945.622437 396.503998,946.362366 396.512970,947.102234 
	C396.645416,946.813965 396.777832,946.525757 396.908844,945.727600 
M361.806152,847.074097 
	C361.703003,846.976501 361.598145,846.800720 361.497223,846.802917 
	C361.392944,846.805237 361.193665,846.997070 361.207092,847.077393 
	C361.272125,847.465515 361.394806,847.844055 361.497070,848.225952 
	C361.622894,847.985046 361.748718,847.744141 361.806152,847.074097 
M434.367340,1072.336548 
	C434.681091,1072.295288 434.994873,1072.254028 435.308624,1072.212891 
	C434.974548,1072.119141 434.640472,1072.025391 434.367340,1072.336548 
M361.487427,841.573059 
	C361.487427,841.573059 361.439880,841.484436 361.487427,841.573059 
z"/>
<path fill="#010103" opacity="1.000000" stroke="none" 
	d="
M286.209534,593.607056 
	C286.264679,593.244507 286.319824,592.882019 286.381775,591.975952 
	C283.595795,582.386108 280.948120,573.291382 277.956543,564.311218 
	C276.124725,558.812439 273.765289,553.489441 271.642761,548.087463 
	C271.701019,547.631714 271.759277,547.176025 271.794678,546.024292 
	C270.524628,541.833130 269.158813,538.375122 268.051086,534.836365 
	C263.609528,520.646973 259.319153,506.409790 254.802170,492.244659 
	C253.791138,489.074127 252.089737,486.123688 250.706177,483.071930 
	C250.747910,482.614655 250.789642,482.157349 250.760223,481.020905 
	C249.413803,477.239166 248.138550,474.136566 246.863297,471.033997 
	C246.866653,470.588531 246.869995,470.143036 246.899200,469.038177 
	C246.254883,467.260437 245.584717,466.142059 244.914536,465.023712 
	C244.879974,464.276367 244.845413,463.528992 244.797363,462.047119 
	C240.308487,447.881439 235.833099,434.450256 231.357727,421.019073 
	C230.295319,421.716949 229.912140,422.452118 229.986649,423.137543 
	C230.825790,430.858490 231.686005,438.578094 232.674652,446.280853 
	C232.837631,447.550751 233.646347,448.737762 234.156647,449.963074 
	C234.131439,452.336334 234.106232,454.709595 234.043121,457.974609 
	C234.776581,464.218536 235.547943,469.570740 236.319290,474.922913 
	C236.283875,476.646423 236.248459,478.369965 236.170990,480.966614 
	C236.115326,482.505920 236.089798,483.172119 236.089798,483.838287 
	C236.091370,686.930786 236.093903,890.023254 236.112122,1093.115723 
	C236.112274,1094.766479 236.326004,1096.417114 236.440002,1098.067871 
	C236.380081,1098.484741 236.320175,1098.901489 236.209152,1100.003906 
	C236.252930,1101.482544 236.347794,1102.275513 236.442657,1103.068604 
	C236.367065,1103.516602 236.291458,1103.964722 235.950439,1105.018555 
	C233.875336,1105.736694 232.066315,1105.933716 230.255875,1105.947754 
	C214.822952,1106.066895 199.389771,1106.152832 183.956665,1106.248779 
	C183.528931,1106.193604 183.101181,1106.138428 182.018707,1106.039795 
	C180.895493,1106.076904 180.426971,1106.157593 179.958466,1106.238281 
	C178.264481,1106.185181 176.570480,1106.131958 174.083618,1106.026855 
	C172.513428,1106.062378 171.736099,1106.149780 170.958755,1106.237183 
	C169.265045,1106.189331 167.571320,1106.141479 165.006561,1106.023804 
	C143.076385,1106.046631 122.017273,1106.139404 100.958160,1106.232178 
	C100.531219,1106.185303 100.104263,1106.138550 99.141113,1106.019165 
	C98.432671,1105.955078 98.260422,1105.963623 98.088165,1105.972168 
	C97.989067,1104.483032 97.803162,1102.994019 97.803116,1101.504883 
	C97.790688,735.309875 97.791199,369.114899 97.792191,2.919907 
	C97.792191,2.586881 97.804794,2.253856 97.905754,1.460415 
	C140.354233,1.000000 182.708450,1.000000 225.531342,1.000001 
	C227.482529,6.321023 228.792572,11.697609 230.484909,16.951050 
	C233.630966,26.717249 236.989395,36.415211 240.278732,46.135044 
	C244.405884,58.330631 248.660675,70.484322 252.655716,82.722893 
	C255.733780,92.152382 258.381439,101.722046 261.435333,111.159843 
	C263.830658,118.562401 266.663269,125.822701 269.105713,133.210968 
	C272.217957,142.625366 275.115417,152.110611 278.138428,161.554749 
	C280.477539,168.862320 282.851471,176.158829 285.238770,183.450836 
	C287.827576,191.358307 290.403839,199.270401 293.069061,207.152237 
	C296.283051,216.657074 299.674255,226.102646 302.823700,235.628448 
	C306.003571,245.246292 308.885925,254.962570 312.074951,264.577271 
	C315.165283,273.894440 318.583710,283.102936 321.666626,292.422485 
	C324.732452,301.690338 327.532349,311.045837 330.501587,320.346069 
	C332.617279,326.972565 334.820374,333.571136 336.896332,340.970184 
	C338.920593,347.507050 341.032990,353.255920 343.145386,359.004791 
	C343.195557,359.385101 343.245697,359.765411 343.192749,360.800507 
	C344.537079,364.731110 345.984558,368.006897 347.432037,371.282715 
	C347.484192,371.670990 347.536346,372.059265 347.392700,372.947937 
	C348.000092,374.708252 348.803284,375.968109 349.606506,377.227997 
	C349.647095,377.624420 349.687683,378.020874 349.539337,378.940704 
	C350.151611,381.028870 350.952850,382.593658 351.754089,384.158417 
	C351.789337,384.569122 351.824585,384.979797 351.696533,385.951721 
	C353.644379,393.325317 355.617218,400.185089 357.927948,406.929108 
	C359.003937,410.069397 360.735260,412.985168 362.169525,416.002716 
	C362.208679,416.392212 362.247833,416.781708 362.142761,417.786285 
	C362.820923,419.692902 363.643341,420.984467 364.465759,422.276001 
	C364.532898,422.962677 364.600067,423.649353 364.494202,424.868896 
	C364.918488,426.267487 365.515839,427.133179 366.113159,427.998871 
	C366.183319,428.679718 366.253479,429.360596 366.202179,430.727173 
	C366.827820,432.609680 367.574921,433.806427 368.322021,435.003204 
	C368.353058,435.379913 368.384094,435.756653 368.238129,436.725220 
	C368.825165,438.315155 369.589203,439.313171 370.353271,440.311188 
	C370.455841,440.986847 370.558411,441.662537 370.467346,442.883362 
	C371.076263,444.685150 371.878815,445.941711 372.681366,447.198303 
	C372.735138,447.900787 372.788879,448.603302 372.671448,449.846924 
	C373.242035,451.318237 373.983826,452.248413 374.725647,453.178619 
	C374.774475,453.584015 374.823303,453.989380 374.649780,454.952209 
	C375.571655,459.022217 376.612122,462.573273 377.895905,466.034058 
	C378.781525,468.421417 380.003723,470.683929 381.075500,473.002228 
	C381.109436,473.701263 381.143402,474.400299 381.083832,475.778809 
	C381.615295,477.005829 382.240234,477.553406 382.865173,478.100983 
	C382.965027,479.088684 383.064880,480.076416 383.043457,481.776001 
	C383.653748,483.324921 384.385284,484.161957 385.116791,484.998993 
	C385.175385,485.683655 385.233978,486.368317 385.152069,487.716980 
	C385.849945,489.341125 386.688354,490.301239 387.526733,491.261383 
	C387.585754,492.263123 387.644745,493.264862 387.534851,494.824585 
	C388.020599,496.255707 388.675201,497.128876 389.329834,498.002014 
	C389.364532,498.375153 389.399261,498.748322 389.264191,499.738861 
	C389.923584,501.652405 390.752777,502.948517 391.581970,504.244659 
	C391.637573,504.936646 391.693176,505.628601 391.559479,506.890991 
	C392.834229,510.692627 394.298279,513.923828 395.762329,517.155090 
	C395.790253,517.566467 395.818176,517.977905 395.702271,518.966125 
	C397.774811,526.735229 399.893127,533.959900 402.253845,541.104492 
	C403.262207,544.156311 404.776367,547.041077 406.060699,550.001709 
	C406.100189,550.405029 406.139648,550.808350 406.067200,551.878662 
	C406.699097,553.696472 407.442932,554.847351 408.186768,555.998230 
	C408.228088,556.385315 408.269409,556.772339 408.168030,557.776367 
	C408.835541,559.688477 409.645782,560.983582 410.456055,562.278748 
	C410.531219,562.963440 410.606384,563.648132 410.508942,564.873291 
	C411.010590,566.610107 411.684814,567.806335 412.359070,569.002625 
	C412.394379,569.370483 412.429688,569.738403 412.315033,570.705811 
	C412.980804,572.612732 413.796509,573.920044 414.612244,575.227356 
	C414.662323,575.624329 414.712372,576.021240 414.552734,576.920227 
	C415.157715,578.662537 415.972382,579.902832 416.787048,581.143066 
	C416.825592,581.556213 416.864136,581.969360 416.746307,582.961304 
	C417.218292,585.895325 417.677368,588.312195 418.508057,590.593689 
	C420.632843,596.429321 422.923187,602.204651 425.147278,608.004150 
	C425.194397,608.384583 425.241547,608.765076 425.185120,609.768738 
	C425.749481,611.260986 426.417358,612.130005 427.085236,612.999023 
	C427.152283,613.686951 427.219299,614.374878 427.152039,615.754272 
	C427.793884,617.630920 428.570038,618.816040 429.346191,620.001221 
	C429.377991,620.372864 429.409760,620.744507 429.280518,621.734253 
	C429.977356,623.632019 430.835205,624.911621 431.693054,626.191284 
	C431.712555,626.596130 431.732025,627.001038 431.519653,627.904541 
	C432.062439,629.677368 432.837097,630.951599 433.611786,632.225830 
	C433.669250,632.922913 433.726715,633.619934 433.605469,634.851013 
	C434.038147,636.256042 434.649536,637.127014 435.260925,637.998047 
	C435.363159,638.655518 435.465393,639.312927 435.380890,640.621826 
	C435.968018,642.272400 436.741821,643.271484 437.515625,644.270630 
	C437.633026,645.265808 437.750427,646.260986 437.684814,647.785339 
	C438.254028,649.275146 439.006256,650.235779 439.787323,651.546631 
	C439.857941,652.597473 439.899750,653.298218 439.780731,654.210938 
	C440.340698,655.341370 441.061493,656.259766 441.809814,657.531006 
	C441.894196,658.589172 441.950989,659.294495 441.827179,660.240173 
	C442.753906,663.365479 443.861237,666.250366 445.223785,669.799988 
	C447.741119,665.587341 446.432495,662.783630 444.181396,659.674988 
	C444.141235,657.152466 444.080139,655.076355 444.231384,652.739502 
	C443.651947,650.302551 442.860138,648.126404 442.068359,645.950317 
	C442.026733,643.598694 441.985138,641.247009 442.128601,638.211914 
	C441.588959,635.318909 440.864288,633.109497 440.139587,630.900024 
	C440.066040,627.578674 439.992523,624.257385 439.946106,620.035278 
	C439.383942,611.838867 438.284790,604.543457 438.280853,597.247437 
	C438.205444,457.094147 438.278931,316.940796 438.189209,176.787491 
	C438.186432,172.469742 439.140991,171.085495 443.659973,171.101318 
	C485.988098,171.249557 528.317078,171.155792 570.645752,171.154678 
	C572.431335,171.154633 574.216980,171.377167 576.370972,171.520538 
	C576.370972,173.477921 576.371155,175.126984 576.370972,176.776047 
	C576.361938,262.268219 576.348328,347.760406 576.344727,433.252594 
	C576.335205,655.565796 576.333313,877.878967 576.269653,1100.192139 
	C576.269104,1102.201660 575.462769,1104.210815 575.032593,1106.220215 
	C573.643127,1106.176147 572.253723,1106.131958 569.999329,1106.032715 
	C563.734497,1106.069092 558.334534,1106.160645 552.934631,1106.252197 
	C550.929138,1106.230103 548.923706,1106.208130 546.110962,1106.066162 
	C535.839294,1106.066040 526.374878,1106.185913 516.910461,1106.305908 
	C516.191772,1106.228394 515.473083,1106.150879 514.009155,1106.040039 
	C494.491821,1106.090088 475.719757,1106.173218 456.947662,1106.256348 
	C456.388519,1106.212402 455.829346,1106.168579 454.673889,1106.030029 
	C453.417633,1105.247192 452.430389,1104.671753 452.148651,1103.853516 
	C449.455017,1096.028931 446.951660,1088.138550 444.241669,1080.319824 
	C442.920013,1076.506714 441.276825,1072.804810 439.779236,1069.052612 
	C439.825073,1068.601929 439.870911,1068.151367 439.902527,1067.036865 
	C439.155762,1065.275635 438.423157,1064.178345 437.690552,1063.081055 
	C437.715790,1062.627930 437.740997,1062.174927 437.784088,1061.028320 
	C434.245819,1049.145020 430.767273,1037.929443 427.086334,1026.780884 
	C425.980988,1023.432922 424.311768,1020.271179 422.900940,1017.024170 
	C422.925934,1016.577698 422.950958,1016.131226 422.986115,1015.023865 
	C422.273010,1013.256104 421.549805,1012.149292 420.826599,1011.042480 
	C420.845459,1010.595764 420.864349,1010.149048 420.925903,1009.032715 
	C420.240326,1006.919495 419.512146,1005.475830 418.783936,1004.032227 
	C418.823486,1003.587158 418.863037,1003.142090 418.892334,1002.041382 
	C418.215485,1000.267212 417.548889,999.148682 416.882263,998.030212 
	C416.891388,997.584229 416.900482,997.138184 416.907654,996.012756 
	C416.175323,993.912354 415.444977,992.491394 414.714661,991.070435 
	C414.710999,990.618713 414.707367,990.166992 414.686951,989.091370 
	C413.903778,987.269958 413.137421,986.072388 412.371033,984.874878 
	C412.400330,984.455566 412.429626,984.036255 412.453491,983.022095 
	C410.268677,976.291931 408.089264,970.156494 405.909851,964.021118 
	C405.940399,963.573792 405.970947,963.126404 405.962524,961.964661 
	C404.688995,957.419495 403.570221,953.546265 402.186554,949.770142 
	C400.858551,946.145874 399.256012,942.622192 397.774078,939.054321 
	C397.811707,938.604980 397.849304,938.155579 397.894531,937.005920 
	C396.528900,932.886963 395.155609,929.468384 393.782349,926.049744 
	C393.822815,925.600525 393.863281,925.151245 393.878784,924.026428 
	C393.103455,921.933289 392.353119,920.515808 391.602783,919.098267 
	C391.622864,918.641663 391.642914,918.185059 391.650269,917.055237 
	C390.669495,913.614075 389.636871,910.866699 388.745605,908.074219 
	C386.124084,899.860901 383.677002,891.589905 380.929962,883.419312 
	C379.073700,877.898193 376.825989,872.508545 374.753357,867.060120 
	C374.769989,866.608398 374.786591,866.156616 374.789978,865.070679 
	C374.087982,863.314270 373.399231,862.192078 372.710510,861.069885 
	C372.727509,860.616821 372.744507,860.163818 372.742004,859.024048 
	C372.018188,856.172241 371.365082,853.988770 370.599640,851.845520 
	C368.526459,846.040283 366.405579,840.252075 364.303589,834.457153 
	C364.350525,834.132080 364.397430,833.806946 364.507355,832.978882 
	C363.081116,827.933228 361.703033,823.350281 360.075073,818.857910 
	C357.949768,812.993164 355.626526,807.200195 353.388489,801.376343 
	C353.552795,801.071045 353.572540,800.756653 353.451721,799.945129 
	C352.230865,796.323486 351.005890,793.189941 349.780945,790.056335 
	C349.796234,789.606445 349.811493,789.156555 349.815735,788.006958 
	C347.490173,780.063293 345.280243,772.783447 342.810760,765.592712 
	C341.796051,762.638000 340.222168,759.875244 338.902649,757.025208 
	C338.918610,756.272827 338.934570,755.520447 338.923004,754.034302 
	C338.260315,751.361572 337.709717,749.389709 336.971649,747.490784 
	C335.608795,743.984253 334.136017,740.520325 332.709045,737.038696 
	C332.723236,736.593262 332.737427,736.147827 332.748169,735.066223 
	C331.959900,733.076538 331.175079,731.723022 330.390259,730.369507 
	C330.578339,730.084106 330.620697,729.778442 330.539093,728.954224 
	C329.271423,724.996155 327.981995,721.536377 326.692596,718.076599 
	C326.675446,717.317322 326.658295,716.558105 326.603577,715.093567 
	C324.422394,707.978027 322.366180,701.536621 320.100006,695.169922 
	C318.873688,691.724731 317.288940,688.407104 315.865875,685.031921 
	C315.892334,684.585083 315.918793,684.138184 315.954773,683.041870 
	C315.284851,681.317200 314.605438,680.242065 313.926025,679.166931 
	C313.930267,678.690613 313.934540,678.214294 313.960754,677.029663 
	C313.257141,674.562256 312.531555,672.803162 311.805969,671.044128 
	C311.835724,670.595215 311.865509,670.146240 311.852051,669.055908 
	C311.113373,667.631226 310.417969,666.847900 309.722565,666.064575 
	C309.751831,665.609802 309.781128,665.155090 309.782196,664.049438 
	C308.957581,661.730957 308.161163,660.063477 307.364746,658.395935 
	C307.535461,658.094299 307.563599,657.779907 307.478424,656.952698 
	C303.943726,645.204590 300.456055,633.931396 296.765045,622.725159 
	C295.776703,619.724426 294.168121,616.928040 292.844269,614.037842 
	C292.874908,613.589294 292.905579,613.140747 292.963867,612.027466 
	C292.250214,609.926697 291.508942,608.490723 290.767670,607.054688 
	C290.795868,606.605347 290.824097,606.156006 290.852722,605.036255 
	C290.067139,602.948364 289.281189,601.530823 288.495239,600.113281 
	C288.508606,599.654602 288.521973,599.195923 288.522400,598.119873 
	C287.742828,596.204041 286.976166,594.905518 286.209534,593.607056 
M158.498917,199.877106 
	C165.692383,199.877106 172.885834,199.877106 180.079300,199.877106 
	C180.152496,200.183884 180.225708,200.490646 180.298904,200.797424 
	C161.659729,206.332108 143.020538,211.866791 124.586899,217.340454 
	C124.586899,222.049362 124.586899,226.296783 124.586899,230.926468 
	C159.027802,230.226685 193.052475,229.535355 226.850159,228.848648 
	C226.850159,223.926086 226.850159,219.660736 226.850159,215.534393 
	C207.527893,215.534393 188.598602,215.534393 168.653503,215.534393 
	C170.154556,214.974365 170.718597,214.724487 171.305206,214.550797 
	C188.675537,209.407959 206.058548,204.307266 223.398865,199.065292 
	C224.676285,198.679108 226.501022,197.372101 226.609192,196.339981 
	C226.998993,192.620621 226.762375,188.835632 226.762375,184.797394 
	C192.017578,185.504120 157.963516,186.196808 124.088348,186.885834 
	C124.088348,191.766006 124.088348,195.981445 124.088348,199.897354 
	C135.549515,199.897354 146.524292,199.897354 158.498917,199.877106 
M174.306244,117.947121 
	C165.935272,119.005165 157.564316,120.063202 149.198578,121.120583 
	C149.198578,125.683220 149.198578,129.766617 149.198578,134.101242 
	C174.781891,129.830276 199.998138,125.620583 225.124725,121.425858 
	C225.124725,117.195068 225.124725,113.577690 225.124725,109.509338 
	C211.908829,107.818352 198.931152,106.157837 185.953476,104.497330 
	C185.962570,104.132591 185.971680,103.767853 185.980774,103.403114 
	C198.821289,101.164001 211.661789,98.924896 224.573090,96.673439 
	C224.573090,92.629333 224.573090,88.890938 224.573090,84.917122 
	C198.954330,81.649742 173.635117,78.420563 148.287231,75.187729 
	C148.287231,79.744553 148.287231,83.816284 148.287231,87.958359 
	C162.774063,89.356033 176.931366,90.721924 191.088669,92.087807 
	C191.113083,92.448776 191.137497,92.809738 191.161926,93.170708 
	C177.051285,95.563080 162.940628,97.955444 148.739563,100.363144 
	C148.739563,103.294273 148.739563,105.999237 148.739563,108.753326 
	C163.266312,110.682320 177.387726,112.557487 191.509140,114.432655 
	C191.475311,114.852776 191.441467,115.272903 191.407639,115.693024 
	C186.007355,116.421936 180.607071,117.150856 174.306244,117.947121 
M221.424316,169.947495 
	C227.589127,163.547546 229.032181,153.707336 224.767349,147.151230 
	C220.129272,140.021301 207.862656,136.550674 198.635788,139.590607 
	C198.635788,143.637650 198.635788,147.588638 198.635788,151.917664 
	C202.310699,151.917664 205.730530,151.375137 208.853195,152.104614 
	C211.005829,152.607513 212.747101,154.871307 214.672195,156.348114 
	C212.982819,158.096420 211.428925,161.162140 209.579346,161.352356 
	C203.402405,161.987564 197.119553,161.593063 190.157196,161.593063 
	C190.157196,154.085953 190.157196,146.674606 190.157196,139.435318 
	C182.134750,139.435318 174.836273,139.331207 167.543915,139.496506 
	C165.251938,139.548462 162.925720,140.151062 160.703033,140.801758 
	C154.683716,142.563919 150.570374,146.363647 149.021835,152.574829 
	C145.918076,165.024033 154.439087,175.698898 167.966522,175.783630 
	C181.117218,175.866028 194.295090,175.785263 207.410980,174.970428 
	C211.968597,174.687302 216.376480,171.993881 221.424316,169.947495 
z"/>
<path fill="#020204" opacity="1.000000" stroke="none" 
	d="
M970.531372,1.000001 
	C974.961060,2.986009 978.862732,5.102722 982.893372,6.935739 
	C1001.821838,15.543890 1017.709473,28.198168 1031.978027,43.153481 
	C1047.099487,59.002735 1058.470093,77.299332 1066.954834,97.312012 
	C1070.878296,106.566055 1073.338013,116.466103 1076.116699,126.171921 
	C1078.318848,133.863510 1080.239380,141.656189 1081.825928,149.496857 
	C1083.006226,155.330460 1083.880737,161.293533 1084.145996,167.232208 
	C1084.977661,185.855148 1085.981689,204.493546 1085.992310,223.126495 
	C1086.120361,446.279510 1086.113403,669.432678 1086.002197,892.585693 
	C1085.995605,905.885376 1085.575195,919.279846 1083.946655,932.457092 
	C1082.318848,945.628967 1079.049805,958.608643 1076.287720,971.627502 
	C1071.710083,993.202942 1062.821777,1013.070435 1050.641846,1031.286865 
	C1037.858521,1050.405762 1021.919861,1066.500854 1002.523438,1079.297119 
	C988.857300,1088.312988 974.012329,1094.382080 958.719910,1099.456299 
	C951.335938,1101.906250 943.395325,1103.084229 935.609497,1103.851440 
	C885.289246,1108.808960 834.826172,1105.286377 784.430664,1105.928711 
	C733.943665,1106.572266 683.442139,1106.070679 632.946960,1106.070923 
	C626.834045,1106.071045 620.721191,1106.070923 614.328552,1106.070923 
	C614.328552,794.274780 614.328552,483.030487 614.328552,171.416595 
	C615.606995,171.311951 616.868286,171.118942 618.129761,171.118423 
	C662.460388,171.099945 706.791260,171.160431 751.121277,170.998856 
	C755.373474,170.983368 756.646362,172.330704 756.542603,176.368881 
	C756.350098,183.862396 756.542297,191.365326 756.542480,198.864334 
	C756.548157,452.015686 756.553162,705.167053 756.514221,958.318420 
	C756.513794,961.213745 756.276489,963.371399 760.414368,963.349854 
	C794.243530,963.173706 828.084412,963.675598 861.898865,962.930908 
	C878.193115,962.572083 894.257690,959.184814 908.430054,950.216736 
	C919.654541,943.114014 927.559082,933.199341 933.232971,921.142029 
	C942.161560,902.168152 943.215332,881.832092 943.238403,861.620911 
	C943.476990,652.967285 943.387268,444.313263 943.277466,235.659363 
	C943.271790,224.849014 943.194031,213.890778 941.511414,203.260712 
	C938.236450,182.570511 931.716675,163.118347 914.239197,149.454712 
	C906.687744,143.551102 898.201660,139.920670 888.861511,137.438171 
	C873.539246,133.365677 858.041931,133.381744 842.449219,133.383316 
	C768.454102,133.390808 694.458984,133.345871 620.463867,133.319717 
	C618.511414,133.319031 616.558960,133.319641 614.076172,133.319641 
	C614.076172,89.157883 614.076172,45.546257 614.038086,1.467317 
	C732.687561,1.000000 851.375122,1.000000 970.531372,1.000001 
M756.979980,1065.400269 
	C758.275940,1061.998413 760.217468,1058.696411 760.760986,1055.178345 
	C763.829712,1035.314209 763.145142,1015.339783 761.646667,995.395203 
	C761.364807,991.644165 760.171997,987.903625 758.991638,984.291565 
	C757.239807,978.930603 753.659790,974.624023 748.108887,973.625793 
	C739.249084,972.032532 730.212219,971.423706 721.189331,970.391602 
	C721.189331,1005.897766 721.189331,1039.943359 721.189331,1074.049438 
	C726.869934,1074.049438 732.207825,1074.346436 737.499084,1073.976685 
	C744.680542,1073.475098 751.853943,1072.529053 756.979980,1065.400269 
M838.363159,1029.861450 
	C837.894165,1034.530396 837.425110,1039.199219 836.956116,1043.868164 
	C836.518616,1043.879639 836.081177,1043.891113 835.643677,1043.902588 
	C833.774963,1028.571045 831.906189,1013.239380 830.077759,998.238892 
	C825.024048,998.238892 820.676575,998.238892 816.314331,998.238892 
	C820.338257,1022.827393 824.314453,1046.954102 828.224915,1071.091309 
	C830.188599,1083.212402 828.119202,1086.512085 816.949951,1089.736450 
	C816.949951,1093.575562 816.949951,1097.361450 816.949951,1101.081177 
	C830.077332,1103.320679 839.397766,1096.745605 842.002197,1082.721436 
	C845.372986,1064.571289 848.083801,1046.298706 851.104004,1028.083008 
	C852.750793,1018.150757 854.449951,1008.227234 856.168091,998.047424 
	C851.201660,998.047424 846.781555,998.047424 842.300842,998.047424 
	C841.008118,1008.529358 839.748047,1018.745728 838.363159,1029.861450 
M786.770813,1017.412537 
	C786.842285,1016.249878 786.548096,1014.880859 787.062866,1013.968323 
	C788.068481,1012.185730 789.526306,1010.658203 790.796875,1009.025085 
	C792.010742,1010.557922 793.994080,1011.947632 794.310120,1013.647339 
	C796.003113,1022.750671 794.933411,1024.676880 786.727539,1029.437744 
	C774.141296,1036.740112 768.518921,1049.310547 771.503540,1063.296265 
	C772.587402,1068.375366 774.278687,1073.234985 779.751160,1074.792358 
	C785.433105,1076.409180 789.679260,1073.433350 793.077148,1069.058228 
	C793.221313,1068.872681 793.655029,1068.912231 794.200989,1068.792725 
	C794.665100,1070.489136 795.130188,1072.188599 795.596497,1073.892822 
	C800.328369,1073.892822 804.753845,1073.892822 808.828918,1073.892822 
	C808.828918,1068.193237 808.830750,1062.748047 808.828613,1057.302734 
	C808.823242,1043.310913 808.913025,1029.317993 808.780334,1015.327393 
	C808.665100,1003.177063 800.693359,995.833374 789.064697,996.876831 
	C778.786987,997.799072 770.920776,1008.978516 773.060730,1020.146851 
	C776.772705,1020.146851 780.577393,1020.251770 784.367615,1020.063538 
	C785.183350,1020.023010 785.946411,1018.923584 786.770813,1017.412537 
z"/>
<path fill="#020204" opacity="1.000000" stroke="none" 
	d="
M576.531372,1.000002 
	C576.849915,2.472949 576.568787,3.945881 576.568665,5.418839 
	C576.564819,46.706341 576.591980,87.993851 576.596191,129.281357 
	C576.596313,130.422073 576.400208,131.562836 576.270508,132.977585 
	C530.264160,132.977585 484.428589,132.977585 437.990295,132.977585 
	C437.990295,89.062492 437.990295,45.499882 437.995148,1.468636 
	C484.020905,1.000000 530.041809,1.000000 576.531372,1.000002 
z"/>
<path fill="#0B0B0B" opacity="1.000000" stroke="none" 
	d="
M858.444153,1179.000000 
	C850.535095,1174.823120 849.473633,1168.001099 849.695618,1160.251099 
	C850.024780,1148.762085 849.644226,1137.254517 849.860657,1125.760376 
	C850.031433,1116.692627 856.332275,1111.568970 865.018555,1112.983887 
	C870.532166,1113.882080 874.255554,1118.218262 874.952454,1125.088501 
	C875.285217,1128.368774 875.009766,1131.710815 875.009766,1135.356201 
	C872.066345,1135.356201 869.338379,1135.356201 866.036011,1135.356201 
	C866.036011,1132.130981 866.355591,1128.964966 865.893555,1125.917480 
	C865.680664,1124.513062 863.938416,1123.340454 862.889648,1122.062622 
	C861.776733,1123.254761 859.821533,1124.367310 859.699951,1125.653198 
	C859.231628,1130.605225 859.294006,1135.612305 859.262878,1140.599609 
	C859.218140,1147.764648 859.245056,1154.930420 859.288330,1162.095581 
	C859.297363,1163.586914 859.110474,1165.282715 859.741516,1166.510254 
	C860.389160,1167.769775 861.928772,1168.570923 863.078003,1169.572632 
	C864.071960,1168.387329 865.745850,1167.295410 865.924072,1165.998047 
	C866.346619,1162.920898 866.059937,1159.746216 866.059937,1156.290039 
	C869.163452,1156.290039 871.887146,1156.290039 874.598877,1156.290039 
	C876.169556,1166.388672 874.717224,1175.611938 866.168762,1178.691650 
	C863.629456,1179.000000 861.258850,1179.000000 858.444153,1179.000000 
z"/>
<path fill="#D9D9D9" opacity="1.000000" stroke="none" 
	d="
M575.079956,1106.567383 
	C575.462769,1104.210815 576.269104,1102.201660 576.269653,1100.192139 
	C576.333313,877.878967 576.335205,655.565796 576.344727,433.252594 
	C576.348328,347.760406 576.361938,262.268219 576.370972,176.776047 
	C576.371155,175.126984 576.370972,173.477921 576.370972,171.520538 
	C574.216980,171.377167 572.431335,171.154633 570.645752,171.154678 
	C528.317078,171.155792 485.988098,171.249557 443.659973,171.101318 
	C439.140991,171.085495 438.186432,172.469742 438.189209,176.787491 
	C438.278931,316.940796 438.205444,457.094147 438.280853,597.247437 
	C438.284790,604.543457 439.383942,611.838867 439.848938,619.591553 
	C438.821747,618.351990 437.215363,616.686646 437.138184,614.953308 
	C436.812439,607.635193 436.910706,600.296692 436.910187,592.965698 
	C436.900635,453.840271 436.897949,314.714844 436.907471,175.589417 
	C436.907593,173.631378 437.081696,171.673340 437.162109,169.978180 
	C481.830414,169.978180 526.070190,169.979736 570.309937,169.970612 
	C571.635986,169.970337 573.025085,170.091446 574.276184,169.753784 
	C577.867249,168.784637 578.739624,170.862427 578.944336,173.701141 
	C579.063843,175.359024 578.978882,177.031952 578.978882,178.698105 
	C578.980469,486.440247 578.985291,794.182434 578.904846,1101.924561 
	C578.904297,1104.096680 580.721619,1108.580566 575.079956,1106.567383 
z"/>
<path fill="#13180D" opacity="1.000000" stroke="none" 
	d="
M693.588135,1161.993530 
	C693.592163,1166.941772 693.592163,1171.393311 693.592163,1176.091309 
	C690.209717,1176.091309 687.287476,1176.091309 684.103027,1176.091309 
	C684.103027,1154.141602 684.103027,1132.293701 684.103027,1110.135986 
	C688.299805,1110.135986 692.277222,1109.849731 696.197998,1110.199097 
	C703.070435,1110.811523 707.675964,1114.615967 709.207336,1121.393677 
	C710.884583,1128.817017 711.025635,1136.197876 706.288086,1142.936523 
	C705.423035,1144.167114 705.292969,1146.300903 705.572449,1147.885742 
	C707.206909,1157.155762 709.064026,1166.386230 710.919006,1176.008545 
	C707.461670,1176.008545 704.386536,1176.008545 701.098511,1176.008545 
	C699.101257,1166.871826 698.649109,1157.422729 695.554565,1148.641602 
	C694.897705,1148.722534 694.240906,1148.803467 693.584045,1148.884521 
	C693.584045,1153.088623 693.584045,1157.292725 693.588135,1161.993530 
M693.512573,1129.513428 
	C693.512573,1132.750122 693.512573,1135.986816 693.512573,1139.362549 
	C699.671509,1138.089111 701.213440,1135.442627 700.542419,1127.942627 
	C700.185974,1123.959106 699.643677,1119.904541 693.500977,1120.005981 
	C693.500977,1123.038818 693.500977,1125.804077 693.512573,1129.513428 
z"/>
<path fill="#0D0D0D" opacity="1.000000" stroke="none" 
	d="
M545.834656,1108.305054 
	C545.871460,1121.273315 545.910889,1134.241699 545.943604,1147.209961 
	C545.955322,1151.854126 546.106384,1156.504639 545.920349,1161.141235 
	C545.567322,1169.938843 540.173279,1175.543701 532.509216,1175.336548 
	C525.127930,1175.137207 520.010620,1169.421875 519.960999,1160.836426 
	C519.861023,1143.544434 519.950684,1126.251099 520.499023,1108.573364 
	C523.661377,1108.188354 526.286865,1108.188354 529.506470,1108.188354 
	C529.506470,1110.604614 529.507080,1112.549561 529.506348,1114.494385 
	C529.500854,1128.988647 529.482971,1143.483032 529.506409,1157.977295 
	C529.509094,1159.631226 529.384399,1161.431519 529.982849,1162.891846 
	C530.454407,1164.042725 531.953186,1165.494629 532.987061,1165.487793 
	C533.997742,1165.481201 535.401978,1163.967896 535.893921,1162.803467 
	C536.441284,1161.507812 536.217712,1159.859497 536.219482,1158.364502 
	C536.236755,1143.536987 536.231323,1128.709473 536.232178,1113.881958 
	C536.232300,1112.112671 536.232178,1110.343506 536.232178,1108.305054 
	C539.892578,1108.305054 542.863647,1108.305054 545.834656,1108.305054 
z"/>
<path fill="#080808" opacity="1.000000" stroke="none" 
	d="
M339.564819,1142.999512 
	C339.564850,1130.875610 339.564850,1119.251709 339.564850,1107.379761 
	C342.796753,1107.379761 345.553680,1107.379761 348.856873,1107.379761 
	C348.856873,1116.072266 348.856873,1124.629761 348.856873,1133.343750 
	C351.471710,1133.343750 353.539581,1133.343750 355.981232,1133.343750 
	C355.981232,1124.663940 355.981232,1116.242065 355.981232,1107.466797 
	C359.087006,1107.466797 361.823212,1107.466797 364.923218,1107.466797 
	C364.923218,1128.484985 364.923218,1149.498901 364.923218,1170.758667 
	C362.084534,1170.758667 359.340851,1170.758667 356.162109,1170.758667 
	C356.162109,1161.637573 356.162109,1152.717773 356.162109,1143.470703 
	C353.681030,1143.470703 351.623322,1143.470703 349.014160,1143.470703 
	C349.014160,1152.486206 349.014160,1161.543091 349.014160,1170.789795 
	C345.711914,1170.789795 342.940186,1170.789795 339.564819,1170.789795 
	C339.564819,1161.668823 339.564819,1152.584229 339.564819,1142.999512 
z"/>
<path fill="#080808" opacity="1.000000" stroke="none" 
	d="
M1014.746704,1175.887695 
	C1011.728088,1176.322021 1008.958984,1176.322021 1005.988892,1176.322021 
	C1005.988892,1155.080811 1005.988892,1134.304688 1005.988892,1113.195312 
	C1008.859375,1113.195312 1011.736389,1113.195312 1015.035522,1113.195312 
	C1015.035522,1121.690552 1015.035522,1130.117798 1015.035522,1138.866577 
	C1017.509949,1138.866577 1019.579346,1138.866577 1022.300415,1138.866577 
	C1022.300415,1130.320435 1022.300415,1121.772949 1022.300415,1113.052490 
	C1025.733643,1113.052490 1028.519775,1113.052490 1031.595947,1113.052490 
	C1031.595947,1133.958496 1031.595947,1154.709839 1031.595947,1175.871948 
	C1028.764282,1175.871948 1025.891724,1175.871948 1022.648193,1175.871948 
	C1022.648193,1167.100098 1022.648193,1158.313232 1022.648193,1149.197021 
	C1020.068848,1149.197021 1017.833496,1149.197021 1014.996155,1149.197021 
	C1014.996155,1157.908569 1014.996155,1166.681030 1014.746704,1175.887695 
z"/>
<path fill="#D9D9D9" opacity="1.000000" stroke="none" 
	d="
M236.799591,1097.930176 
	C236.326004,1096.417114 236.112274,1094.766479 236.112122,1093.115723 
	C236.093903,890.023254 236.091370,686.930786 236.089798,483.838287 
	C236.089798,483.172119 236.115326,482.505920 236.272888,481.386414 
	C236.920898,482.523743 237.835922,484.108032 237.860916,485.706238 
	C238.001602,494.701202 237.927795,503.699493 237.927856,512.696655 
	C237.929001,705.969055 237.932297,899.241516 237.899506,1092.513916 
	C237.899216,1094.273438 237.416611,1096.032959 236.799591,1097.930176 
z"/>
<path fill="#0F0F0F" opacity="1.000000" stroke="none" 
	d="
M157.328461,1154.916504 
	C157.345245,1144.435669 157.168213,1134.437134 157.433121,1124.450317 
	C157.707321,1114.112915 164.819504,1108.374878 173.663284,1110.818359 
	C179.128601,1112.328491 181.340805,1116.496704 182.087708,1121.445312 
	C182.624832,1125.004150 182.192261,1128.709229 182.192261,1132.611816 
	C179.533051,1132.611816 177.102448,1132.611816 173.771011,1132.611816 
	C173.771011,1129.912964 174.194641,1126.923706 173.615906,1124.142944 
	C173.255005,1122.409058 171.380310,1120.990112 170.184937,1119.429810 
	C169.123779,1120.933960 167.171066,1122.421387 167.142197,1123.945068 
	C166.905563,1136.431519 166.903198,1148.927612 167.196671,1161.412231 
	C167.233444,1162.976685 169.406326,1164.490845 170.589478,1166.028320 
	C171.652130,1164.526611 173.329483,1163.140381 173.638702,1161.496948 
	C174.149521,1158.781738 173.777435,1155.900513 173.777435,1152.818359 
	C176.729141,1152.818359 179.307571,1152.818359 182.557907,1152.818359 
	C182.299789,1157.340820 182.512726,1161.691895 181.704498,1165.844360 
	C180.542908,1171.812134 176.163666,1175.134399 170.481781,1175.306274 
	C164.677673,1175.481812 160.122787,1172.576782 158.517929,1166.734863 
	C157.525345,1163.121704 157.685898,1159.191772 157.328461,1154.916504 
z"/>
<path fill="#D9D9D9" opacity="1.000000" stroke="none" 
	d="
M545.910950,1107.799438 
	C542.863647,1108.305054 539.892578,1108.305054 536.232178,1108.305054 
	C536.232178,1110.343506 536.232300,1112.112671 536.232178,1113.881958 
	C536.231323,1128.709473 536.236755,1143.536987 536.219482,1158.364502 
	C536.217712,1159.859497 536.441284,1161.507812 535.893921,1162.803467 
	C535.401978,1163.967896 533.997742,1165.481201 532.987061,1165.487793 
	C531.953186,1165.494629 530.454407,1164.042725 529.982849,1162.891846 
	C529.384399,1161.431519 529.509094,1159.631226 529.506409,1157.977295 
	C529.482971,1143.483032 529.500854,1128.988647 529.506348,1114.494385 
	C529.507080,1112.549561 529.506470,1110.604614 529.506470,1108.188354 
	C526.286865,1108.188354 523.661377,1108.188354 520.592163,1108.115479 
	C519.157959,1107.720337 518.167419,1107.398315 517.043701,1106.691162 
	C526.374878,1106.185913 535.839294,1106.066040 545.682373,1106.109985 
	C546.036438,1106.613770 546.011841,1106.953857 545.910950,1107.799438 
z"/>
<path fill="#D9D9D9" opacity="1.000000" stroke="none" 
	d="
M250.457703,483.297424 
	C252.089737,486.123688 253.791138,489.074127 254.802170,492.244659 
	C259.319153,506.409790 263.609528,520.646973 268.051086,534.836365 
	C269.158813,538.375122 270.524628,541.833130 271.666748,545.700623 
	C270.399902,544.648987 268.724152,543.402466 268.160828,541.771667 
	C264.856873,532.207153 261.752625,522.571838 258.700623,512.922546 
	C256.382385,505.593262 254.212952,498.216217 252.039352,490.842133 
	C251.328934,488.431976 250.813690,485.964264 250.457703,483.297424 
z"/>
<path fill="#D9D9D9" opacity="1.000000" stroke="none" 
	d="
M234.428894,449.675415 
	C233.646347,448.737762 232.837631,447.550751 232.674652,446.280853 
	C231.686005,438.578094 230.825790,430.858490 229.986649,423.137543 
	C229.912140,422.452118 230.295319,421.716949 231.357727,421.019073 
	C235.833099,434.450256 240.308487,447.881439 244.676453,461.691650 
	C242.712280,458.280609 240.662155,454.569916 239.061874,450.674438 
	C237.852676,447.730896 237.218384,444.551208 235.391190,441.485962 
	C235.161179,444.119873 234.931168,446.753815 234.428894,449.675415 
M234.200470,438.199890 
	C234.393982,438.135498 234.587494,438.071075 234.781006,438.006683 
	C234.585953,437.944977 234.390915,437.883301 234.200470,438.199890 
z"/>
<path fill="#D9D9D9" opacity="1.000000" stroke="none" 
	d="
M101.014122,1106.570312 
	C122.017273,1106.139404 143.076385,1106.046631 164.588364,1106.093994 
	C164.202774,1106.727539 163.368073,1107.644165 162.525314,1107.651611 
	C144.841660,1107.808105 127.157013,1107.908203 109.472717,1107.888550 
	C106.671486,1107.885498 103.870949,1107.251099 101.014122,1106.570312 
z"/>
<path fill="#D9D9D9" opacity="1.000000" stroke="none" 
	d="
M374.494293,867.302734 
	C376.825989,872.508545 379.073700,877.898193 380.929962,883.419312 
	C383.677002,891.589905 386.124084,899.860901 388.745605,908.074219 
	C389.636871,910.866699 390.669495,913.614075 391.502747,916.739868 
	C390.298889,916.021729 388.669312,915.128540 388.249573,913.840942 
	C384.962219,903.757263 381.870605,893.608887 378.794983,883.457397 
	C377.195312,878.177490 375.750183,872.850891 374.494293,867.302734 
z"/>
<path fill="#D9D9D9" opacity="1.000000" stroke="none" 
	d="
M439.517670,1069.282715 
	C441.276825,1072.804810 442.920013,1076.506714 444.241669,1080.319824 
	C446.951660,1088.138550 449.455017,1096.028931 452.148651,1103.853516 
	C452.430389,1104.671753 453.417633,1105.247192 454.402039,1106.109863 
	C453.273804,1105.938599 450.968903,1106.031860 450.523407,1105.167114 
	C449.005310,1102.220703 448.142487,1098.936646 446.588470,1094.531250 
	C446.006409,1096.046631 445.514832,1097.326538 445.023224,1098.606445 
	C444.564545,1098.383667 444.105896,1098.160767 443.647217,1097.937866 
	C446.612335,1087.680786 440.680908,1078.994629 439.517670,1069.282715 
z"/>
<path fill="#D9D9D9" opacity="1.000000" stroke="none" 
	d="
M422.626617,1017.250000 
	C424.311768,1020.271179 425.980988,1023.432922 427.086334,1026.780884 
	C430.767273,1037.929443 434.245819,1049.145020 437.669189,1060.705811 
	C432.721344,1060.023193 434.831024,1055.328613 433.407379,1052.525269 
	C430.446686,1046.695190 428.918396,1040.119751 426.971924,1033.798218 
	C425.308411,1028.395508 423.883026,1022.919495 422.626617,1017.250000 
z"/>
<path fill="#D9D9D9" opacity="1.000000" stroke="none" 
	d="
M456.950378,1106.695557 
	C475.719757,1106.173218 494.491821,1106.090088 513.655640,1106.128174 
	C513.210693,1106.828491 512.376343,1107.908813 511.536865,1107.912720 
	C493.667267,1107.997070 475.797058,1107.960571 457.463501,1107.973755 
	C457.000000,1108.000000 457.015289,1108.010986 457.015289,1108.010986 
	C456.994568,1107.718872 456.973816,1107.426880 456.950378,1106.695557 
z"/>
<path fill="#D9D9D9" opacity="1.000000" stroke="none" 
	d="
M184.072266,1106.623535 
	C199.389771,1106.152832 214.822952,1106.066895 230.255875,1105.947754 
	C232.066315,1105.933716 233.875336,1105.736694 236.040588,1105.350586 
	C236.958893,1105.961548 237.521652,1106.846558 238.211502,1107.931519 
	C222.408035,1107.931519 207.116028,1107.973877 191.824692,1107.889526 
	C189.277527,1107.875488 186.733398,1107.309448 184.072266,1106.623535 
z"/>
<path fill="#D9D9D9" opacity="1.000000" stroke="none" 
	d="
M271.399475,548.345825 
	C273.765289,553.489441 276.124725,558.812439 277.956543,564.311218 
	C280.948120,573.291382 283.595795,582.386108 286.256195,591.726685 
	C285.081177,589.829956 283.794800,587.719849 283.037689,585.434326 
	C279.576752,574.987000 276.264374,564.490479 272.898102,554.011780 
	C272.318909,552.208801 271.736908,550.406738 271.399475,548.345825 
z"/>
<path fill="#D9D9D9" opacity="1.000000" stroke="none" 
	d="
M292.580139,614.277832 
	C294.168121,616.928040 295.776703,619.724426 296.765045,622.725159 
	C300.456055,633.931396 303.943726,645.204590 307.354736,656.744019 
	C305.851105,654.620178 304.102386,652.341675 303.218658,649.766296 
	C299.369690,638.549561 295.765411,627.248718 292.110565,615.966003 
	C291.975525,615.549194 292.238495,615.003418 292.580139,614.277832 
z"/>
<path fill="#D9D9D9" opacity="1.000000" stroke="none" 
	d="
M353.223663,801.791199 
	C355.626526,807.200195 357.949768,812.993164 360.075073,818.857910 
	C361.703033,823.350281 363.081116,827.933228 364.389771,832.755554 
	C363.152008,831.823547 361.787506,830.764404 361.096313,829.371155 
	C359.161713,825.471497 357.321625,821.500916 355.830688,817.417175 
	C355.244049,815.810303 355.949493,813.775269 355.597534,812.029785 
	C354.930023,808.719177 353.924164,805.476807 353.223663,801.791199 
z"/>
<path fill="#D9D9D9" opacity="1.000000" stroke="none" 
	d="
M338.639740,757.263733 
	C340.222168,759.875244 341.796051,762.638000 342.810760,765.592712 
	C345.280243,772.783447 347.490173,780.063293 349.699524,787.687500 
	C348.815552,787.511047 347.563263,787.105713 347.329559,786.374756 
	C344.261475,776.777405 341.337189,767.134033 338.639740,757.263733 
z"/>
<path fill="#D9D9D9" opacity="1.000000" stroke="none" 
	d="
M315.604492,685.259644 
	C317.288940,688.407104 318.873688,691.724731 320.100006,695.169922 
	C322.366180,701.536621 324.422394,707.978027 326.444153,714.746033 
	C325.623230,714.767578 324.457733,714.581299 324.294403,714.072998 
	C321.239624,704.567261 318.303833,695.023376 315.604492,685.259644 
z"/>
<path fill="#D9D9D9" opacity="1.000000" stroke="none" 
	d="
M364.162201,834.875732 
	C366.405579,840.252075 368.526459,846.040283 370.599640,851.845520 
	C371.365082,853.988770 372.018188,856.172241 372.603577,858.709839 
	C370.350616,855.760803 368.216644,852.439270 365.964294,848.933411 
	C365.798401,849.043091 365.042816,849.542358 364.287231,850.041687 
	C369.424469,845.002014 363.755524,840.199768 364.162201,834.875732 
z"/>
<path fill="#747577" opacity="1.000000" stroke="none" 
	d="
M362.361938,415.740021 
	C360.735260,412.985168 359.003937,410.069397 357.927948,406.929108 
	C355.617218,400.185089 353.644379,393.325317 351.730896,386.259003 
	C353.865936,390.577637 356.012482,395.075256 357.684540,399.742859 
	C359.534271,404.906555 360.949768,410.225800 362.361938,415.740021 
z"/>
<path fill="#747577" opacity="1.000000" stroke="none" 
	d="
M406.218567,549.726868 
	C404.776367,547.041077 403.262207,544.156311 402.253845,541.104492 
	C399.893127,533.959900 397.774811,526.735229 395.721375,519.274902 
	C396.973999,521.491760 398.268768,523.909058 399.114685,526.474426 
	C401.630005,534.102417 403.968719,541.788574 406.218567,549.726868 
z"/>
<path fill="#747577" opacity="1.000000" stroke="none" 
	d="
M425.345642,607.737793 
	C422.923187,602.204651 420.632843,596.429321 418.508057,590.593689 
	C417.677368,588.312195 417.218292,585.895325 416.761993,583.272278 
	C419.084534,588.682739 421.290680,594.340881 423.359222,600.048950 
	C424.236328,602.469177 424.824493,604.994141 425.345642,607.737793 
z"/>
<path fill="#D9D9D9" opacity="1.000000" stroke="none" 
	d="
M397.512604,939.280457 
	C399.256012,942.622192 400.858551,946.145874 402.186554,949.770142 
	C403.570221,953.546265 404.688995,957.419495 405.848328,961.645874 
	C405.140503,961.598389 404.125183,961.280334 403.933563,960.693359 
	C401.635284,953.654236 399.459198,946.575195 397.512604,939.280457 
z"/>
<path fill="#D9D9D9" opacity="1.000000" stroke="none" 
	d="
M405.656860,964.257874 
	C408.089264,970.156494 410.268677,976.291931 412.318878,982.733398 
	C410.953003,980.606689 409.440826,978.270508 408.545441,975.718079 
	C407.262146,972.059753 406.429169,968.243469 405.656860,964.257874 
z"/>
<path fill="#D9D9D9" opacity="1.000000" stroke="none" 
	d="
M332.369720,737.099976 
	C334.136017,740.520325 335.608795,743.984253 336.971649,747.490784 
	C337.709717,749.389709 338.260315,751.361572 338.808502,753.675415 
	C338.129944,753.798889 337.189148,753.701294 337.000397,753.272522 
	C334.965729,748.650330 333.000732,743.994934 331.170105,739.289001 
	C330.968170,738.769836 331.720612,737.879456 332.369720,737.099976 
z"/>
<path fill="#D9D9D9" opacity="1.000000" stroke="none" 
	d="
M236.590836,474.617523 
	C235.547943,469.570740 234.776581,464.218536 234.125229,458.411560 
	C235.160126,460.589142 236.453094,463.161377 236.884277,465.870789 
	C237.320831,468.613953 236.904907,471.492737 236.590836,474.617523 
z"/>
<path fill="#747577" opacity="1.000000" stroke="none" 
	d="
M381.243774,472.743469 
	C380.003723,470.683929 378.781525,468.421417 377.895905,466.034058 
	C376.612122,462.573273 375.571655,459.022217 374.647034,455.259094 
	C377.048462,460.833954 379.230255,466.659332 381.243774,472.743469 
z"/>
<path fill="#747577" opacity="1.000000" stroke="none" 
	d="
M343.326355,358.728943 
	C341.032990,353.255920 338.920593,347.507050 336.923828,341.360321 
	C338.235504,343.527893 339.616394,346.026123 340.580170,348.676025 
	C341.741028,351.867737 342.547485,355.188324 343.326355,358.728943 
z"/>
<path fill="#D9D9D9" opacity="1.000000" stroke="none" 
	d="
M553.109863,1106.663940 
	C558.334534,1106.160645 563.734497,1106.069092 569.588074,1106.107422 
	C569.183533,1106.799805 568.313599,1107.861938 567.469055,1107.842163 
	C562.737671,1107.731079 558.012451,1107.358765 553.109863,1106.663940 
z"/>
<path fill="#D9D9D9" opacity="1.000000" stroke="none" 
	d="
M349.527557,790.251343 
	C351.005890,793.189941 352.230865,796.323486 353.316772,799.744019 
	C349.286438,797.890869 348.217346,794.601501 349.527557,790.251343 
z"/>
<path fill="#D9D9D9" opacity="1.000000" stroke="none" 
	d="
M439.941589,653.998962 
	C439.899750,653.298218 439.857941,652.597473 439.871033,651.197021 
	C439.802002,649.792175 439.678070,649.087036 439.554108,648.381836 
	C440.029297,648.261841 440.504486,648.141846 441.463318,648.320679 
	C442.637665,650.079773 443.328369,651.540039 444.019043,653.000305 
	C444.080139,655.076355 444.141235,657.152466 443.821350,659.702209 
	C442.962860,660.117188 442.485352,660.058472 442.007812,659.999756 
	C441.950989,659.294495 441.894196,658.589172 441.894531,657.202637 
	C441.281677,655.680542 440.611633,654.839783 439.941589,653.998962 
z"/>
<path fill="#D9D9D9" opacity="1.000000" stroke="none" 
	d="
M246.614487,471.206451 
	C248.138550,474.136566 249.413803,477.239166 250.604172,480.711700 
	C246.587677,478.937775 246.535812,475.133026 246.614487,471.206451 
z"/>
<path fill="#D9D9D9" opacity="1.000000" stroke="none" 
	d="
M393.527771,926.285095 
	C395.155609,929.468384 396.528900,932.886963 397.792419,936.680908 
	C396.869385,936.651672 395.500610,936.402954 395.335938,935.816284 
	C394.479431,932.765076 393.929718,929.627747 393.527771,926.285095 
z"/>
<path fill="#D9D9D9" opacity="1.000000" stroke="none" 
	d="
M326.444275,718.316711 
	C327.981995,721.536377 329.271423,724.996155 330.413971,728.752197 
	C328.910034,725.551208 327.553009,722.054016 326.444275,718.316711 
z"/>
<path fill="#747577" opacity="1.000000" stroke="none" 
	d="
M347.618896,370.925446 
	C345.984558,368.006897 344.537079,364.731110 343.232422,361.085480 
	C344.852081,363.999847 346.328918,367.283997 347.618896,370.925446 
z"/>
<path fill="#747577" opacity="1.000000" stroke="none" 
	d="
M395.888611,516.768127 
	C394.298279,513.923828 392.834229,510.692627 391.595551,507.236450 
	C393.218903,510.134735 394.616882,513.257935 395.888611,516.768127 
z"/>
<path fill="#747577" opacity="1.000000" stroke="none" 
	d="
M444.231384,652.739502 
	C443.328369,651.540039 442.637665,650.079773 441.828735,648.272827 
	C441.728302,647.471375 441.746124,647.016541 441.916138,646.256042 
	C442.860138,648.126404 443.651947,650.302551 444.231384,652.739502 
z"/>
<path fill="#D9D9D9" opacity="1.000000" stroke="none" 
	d="
M418.477692,1004.053101 
	C419.512146,1005.475830 420.240326,1006.919495 420.845123,1008.705933 
	C419.871613,1007.390503 419.021515,1005.732239 418.477692,1004.053101 
z"/>
<path fill="#D9D9D9" opacity="1.000000" stroke="none" 
	d="
M288.244690,600.263245 
	C289.281189,601.530823 290.067139,602.948364 290.746155,604.713867 
	C288.563293,604.191772 286.236420,603.464539 288.244690,600.263245 
z"/>
<path fill="#D9D9D9" opacity="1.000000" stroke="none" 
	d="
M311.546570,671.282471 
	C312.531555,672.803162 313.257141,674.562256 313.879913,676.680786 
	C310.520264,676.295288 310.768250,673.969177 311.546570,671.282471 
z"/>
<path fill="#747577" opacity="1.000000" stroke="none" 
	d="
M439.992126,631.302673 
	C440.864288,633.109497 441.588959,635.318909 442.099854,637.771606 
	C441.886108,638.014893 441.444183,638.071716 441.265259,637.716980 
	C440.768463,636.898743 440.450531,636.435303 440.132599,635.971863 
	C440.036621,634.549683 439.940643,633.127502 439.992126,631.302673 
z"/>
<path fill="#D9D9D9" opacity="1.000000" stroke="none" 
	d="
M412.080139,985.015747 
	C413.137421,986.072388 413.903778,987.269958 414.546234,988.780151 
	C413.544586,987.780762 412.666901,986.468689 412.080139,985.015747 
z"/>
<path fill="#D9D9D9" opacity="1.000000" stroke="none" 
	d="
M391.364990,919.329956 
	C392.353119,920.515808 393.103455,921.933289 393.774170,923.702393 
	C392.838715,922.556519 391.982941,921.059143 391.364990,919.329956 
z"/>
<path fill="#D9D9D9" opacity="1.000000" stroke="none" 
	d="
M307.211517,658.777466 
	C308.161163,660.063477 308.957581,661.730957 309.635223,663.738892 
	C308.697052,662.439270 307.877655,660.799133 307.211517,658.777466 
z"/>
<path fill="#D9D9D9" opacity="1.000000" stroke="none" 
	d="
M414.471039,991.280273 
	C415.444977,992.491394 416.175323,993.912354 416.806030,995.692200 
	C415.880035,994.530762 415.053741,993.010437 414.471039,991.280273 
z"/>
<path fill="#D9D9D9" opacity="1.000000" stroke="none" 
	d="
M244.643295,465.228363 
	C245.584717,466.142059 246.254883,467.260437 246.799988,468.717743 
	C245.907303,467.848816 245.139679,466.640900 244.643295,465.228363 
z"/>
<path fill="#D9D9D9" opacity="1.000000" stroke="none" 
	d="
M330.238007,730.754639 
	C331.175079,731.723022 331.959900,733.076538 332.616150,734.757568 
	C331.686981,733.769958 330.886353,732.454834 330.238007,730.754639 
z"/>
<path fill="#747577" opacity="1.000000" stroke="none" 
	d="
M351.878784,383.801819 
	C350.952850,382.593658 350.151611,381.028870 349.561218,379.238861 
	C350.515839,380.490814 351.259674,381.967987 351.878784,383.801819 
z"/>
<path fill="#747577" opacity="1.000000" stroke="none" 
	d="
M431.819153,625.850464 
	C430.835205,624.911621 429.977356,623.632019 429.290466,622.013916 
	C430.289398,622.953552 431.117340,624.231567 431.819153,625.850464 
z"/>
<path fill="#747577" opacity="1.000000" stroke="none" 
	d="
M414.768677,574.892578 
	C413.796509,573.920044 412.980804,572.612732 412.334351,570.982361 
	C413.310730,571.958801 414.117920,573.258301 414.768677,574.892578 
z"/>
<path fill="#D9D9D9" opacity="1.000000" stroke="none" 
	d="
M437.449890,1063.281250 
	C438.423157,1064.178345 439.155762,1065.275635 439.787415,1066.714233 
	C438.860718,1065.864136 438.034973,1064.672852 437.449890,1063.281250 
z"/>
<path fill="#747577" opacity="1.000000" stroke="none" 
	d="
M416.914368,580.790405 
	C415.972382,579.902832 415.157715,578.662537 414.566040,577.220154 
	C415.539917,578.157959 416.290802,579.297791 416.914368,580.790405 
z"/>
<path fill="#D9D9D9" opacity="1.000000" stroke="none" 
	d="
M286.085876,593.971619 
	C286.976166,594.905518 287.742828,596.204041 288.370087,597.805603 
	C287.474548,596.851196 286.718414,595.593689 286.085876,593.971619 
z"/>
<path fill="#747577" opacity="1.000000" stroke="none" 
	d="
M391.705017,503.922668 
	C390.752777,502.948517 389.923584,501.652405 389.280792,500.019440 
	C390.254150,500.988647 391.041077,502.294678 391.705017,503.922668 
z"/>
<path fill="#D9D9D9" opacity="1.000000" stroke="none" 
	d="
M290.528595,607.256592 
	C291.508942,608.490723 292.250214,609.926697 292.860474,611.705078 
	C291.916168,610.517761 291.102844,608.988159 290.528595,607.256592 
z"/>
<path fill="#747577" opacity="1.000000" stroke="none" 
	d="
M408.396301,555.787292 
	C407.442932,554.847351 406.699097,553.696472 406.086121,552.182007 
	C407.013275,553.071045 407.809570,554.323669 408.396301,555.787292 
z"/>
<path fill="#D9D9D9" opacity="1.000000" stroke="none" 
	d="
M416.630676,998.222168 
	C417.548889,999.148682 418.215485,1000.267212 418.790283,1001.719360 
	C417.925354,1000.840088 417.152252,999.627136 416.630676,998.222168 
z"/>
<path fill="#D9D9D9" opacity="1.000000" stroke="none" 
	d="
M309.445892,666.195435 
	C310.417969,666.847900 311.113373,667.631226 311.728821,668.738464 
	C310.254120,668.665344 307.094086,669.868164 309.445892,666.195435 
z"/>
<path fill="#747577" opacity="1.000000" stroke="none" 
	d="
M349.749817,376.864624 
	C348.803284,375.968109 348.000092,374.708252 347.415161,373.241028 
	C348.386688,374.189545 349.139893,375.345428 349.749817,376.864624 
z"/>
<path fill="#D9D9D9" opacity="1.000000" stroke="none" 
	d="
M420.591736,1011.227661 
	C421.549805,1012.149292 422.273010,1013.256104 422.885712,1014.701782 
	C421.969086,1013.831299 421.162994,1012.622070 420.591736,1011.227661 
z"/>
<path fill="#747577" opacity="1.000000" stroke="none" 
	d="
M368.522552,434.779358 
	C367.574921,433.806427 366.827820,432.609680 366.221130,431.069397 
	C367.148712,432.002441 367.935883,433.278992 368.522552,434.779358 
z"/>
<path fill="#D9D9D9" opacity="1.000000" stroke="none" 
	d="
M372.471008,861.264160 
	C373.399231,862.192078 374.087982,863.314270 374.655182,864.756226 
	C373.766266,863.870178 372.998901,862.664368 372.471008,861.264160 
z"/>
<path fill="#747577" opacity="1.000000" stroke="none" 
	d="
M364.629700,421.953552 
	C363.643341,420.984467 362.820923,419.692902 362.152069,418.080505 
	C363.134979,419.050140 363.964325,420.340607 364.629700,421.953552 
z"/>
<path fill="#747577" opacity="1.000000" stroke="none" 
	d="
M372.812683,446.851318 
	C371.878815,445.941711 371.076263,444.685150 370.498932,443.225067 
	C371.464111,444.182495 372.204071,445.343414 372.812683,446.851318 
z"/>
<path fill="#747577" opacity="1.000000" stroke="none" 
	d="
M433.741699,631.888794 
	C432.837097,630.951599 432.062439,629.677368 431.518738,628.208679 
	C432.457001,629.193420 433.164307,630.372620 433.741699,631.888794 
z"/>
<path fill="#747577" opacity="1.000000" stroke="none" 
	d="
M429.557007,619.781006 
	C428.570038,618.816040 427.793884,617.630920 427.165466,616.100342 
	C428.131439,617.023560 428.949646,618.292236 429.557007,619.781006 
z"/>
<path fill="#747577" opacity="1.000000" stroke="none" 
	d="
M410.641113,561.968018 
	C409.645782,560.983582 408.835541,559.688477 408.181824,558.068237 
	C409.167572,559.047852 409.996857,560.352600 410.641113,561.968018 
z"/>
<path fill="#747577" opacity="1.000000" stroke="none" 
	d="
M412.572632,568.770691 
	C411.684814,567.806335 411.010590,566.610107 410.557007,565.214478 
	C411.447174,566.189697 412.116669,567.364197 412.572632,568.770691 
z"/>
<path fill="#747577" opacity="1.000000" stroke="none" 
	d="
M370.524780,440.022705 
	C369.589203,439.313171 368.825165,438.315155 368.237427,437.009308 
	C369.174591,437.712402 369.935455,438.723297 370.524780,440.022705 
z"/>
<path fill="#747577" opacity="1.000000" stroke="none" 
	d="
M385.322144,484.816040 
	C384.385284,484.161957 383.653748,483.324921 383.074921,482.149048 
	C383.994232,482.751190 384.760864,483.692139 385.322144,484.816040 
z"/>
<path fill="#747577" opacity="1.000000" stroke="none" 
	d="
M374.837158,452.846161 
	C373.983826,452.248413 373.242035,451.318237 372.698242,450.198608 
	C373.580414,450.844055 374.264587,451.678864 374.837158,452.846161 
z"/>
<path fill="#747577" opacity="1.000000" stroke="none" 
	d="
M387.659729,490.955872 
	C386.688354,490.301239 385.849945,489.341125 385.177734,488.059875 
	C386.160187,488.709320 386.976471,489.679840 387.659729,490.955872 
z"/>
<path fill="#747577" opacity="1.000000" stroke="none" 
	d="
M366.304993,427.799072 
	C365.515839,427.133179 364.918488,426.267487 364.549011,425.210022 
	C365.350189,425.878571 365.923523,426.738892 366.304993,427.799072 
z"/>
<path fill="#747577" opacity="1.000000" stroke="none" 
	d="
M427.276947,612.804443 
	C426.417358,612.130005 425.749481,611.260986 425.228455,610.052979 
	C426.073059,610.679260 426.770844,611.644531 427.276947,612.804443 
z"/>
<path fill="#747577" opacity="1.000000" stroke="none" 
	d="
M435.460449,637.785645 
	C434.649536,637.127014 434.038147,636.256042 433.647095,635.198486 
	C434.464935,635.865662 435.062439,636.719421 435.460449,637.785645 
z"/>
<path fill="#D9D9D9" opacity="1.000000" stroke="none" 
	d="
M439.859833,636.172852 
	C440.450531,636.435303 440.768463,636.898743 441.051941,637.652832 
	C440.563843,638.718323 440.110107,639.493164 439.656403,640.268066 
	C439.418243,640.176147 439.180084,640.084290 438.941956,639.992371 
	C439.156982,638.786194 439.372009,637.580078 439.859833,636.172852 
z"/>
<path fill="#747577" opacity="1.000000" stroke="none" 
	d="
M437.644165,643.971741 
	C436.741821,643.271484 435.968018,642.272400 435.381531,640.955811 
	C436.303528,641.649841 437.038147,642.661316 437.644165,643.971741 
z"/>
<path fill="#747577" opacity="1.000000" stroke="none" 
	d="
M439.298859,648.276001 
	C439.678070,649.087036 439.802002,649.792175 439.842224,650.846924 
	C439.006256,650.235779 438.254028,649.275146 437.735138,648.158997 
	C438.326843,648.059021 438.685211,648.114563 439.298859,648.276001 
z"/>
<path fill="#D9D9D9" opacity="1.000000" stroke="none" 
	d="
M313.859772,679.518616 
	C314.605438,680.242065 315.284851,681.317200 315.860168,682.717896 
	C315.101898,681.985779 314.447693,680.928040 313.859772,679.518616 
z"/>
<path fill="#747577" opacity="1.000000" stroke="none" 
	d="
M389.548584,497.813477 
	C388.675201,497.128876 388.020599,496.255707 387.588104,495.197510 
	C388.462616,495.883270 389.114990,496.754089 389.548584,497.813477 
z"/>
<path fill="#D9D9D9" opacity="1.000000" stroke="none" 
	d="
M354.359467,824.094788 
	C354.200714,822.898132 354.200714,821.957581 354.200714,821.016968 
	C354.378876,820.988586 354.557007,820.960144 354.735168,820.931763 
	C354.951019,822.045471 355.171478,823.158386 355.364868,824.276001 
	C355.372192,824.318420 355.120850,824.450684 354.984039,824.460938 
	C354.832336,824.472290 354.673798,824.391479 354.359467,824.094788 
z"/>
<path fill="#D9D9D9" opacity="1.000000" stroke="none" 
	d="
M171.011566,1106.544678 
	C171.736099,1106.149780 172.513428,1106.062378 173.666046,1106.104858 
	C173.049011,1106.440674 172.056686,1106.646362 171.011566,1106.544678 
z"/>
<path fill="#D9D9D9" opacity="1.000000" stroke="none" 
	d="
M236.735321,1103.015137 
	C236.347794,1102.275513 236.252930,1101.482544 236.298889,1100.310059 
	C236.635803,1100.940918 236.831894,1101.951172 236.735321,1103.015137 
z"/>
<path fill="#D9D9D9" opacity="1.000000" stroke="none" 
	d="
M378.093994,895.013428 
	C378.225494,894.470215 378.357574,894.181885 378.489655,893.893494 
	C378.498291,894.633301 378.506927,895.373108 378.515533,896.112915 
	C378.375214,895.831360 378.234924,895.549866 378.093994,895.013428 
z"/>
<path fill="#D9D9D9" opacity="1.000000" stroke="none" 
	d="
M179.987595,1106.515259 
	C180.426971,1106.157593 180.895493,1106.076904 181.703476,1106.121704 
	C181.367538,1106.428833 180.692123,1106.610474 179.987595,1106.515259 
z"/>
<path fill="#D9D9D9" opacity="1.000000" stroke="none" 
	d="
M396.909546,945.982544 
	C396.777832,946.525757 396.645416,946.813965 396.512970,947.102234 
	C396.503998,946.362366 396.495026,945.622437 396.486053,944.882568 
	C396.626984,945.164246 396.767914,945.445923 396.909546,945.982544 
z"/>
<path fill="#D9D9D9" opacity="1.000000" stroke="none" 
	d="
M97.852554,1106.093262 
	C98.260422,1105.963623 98.432671,1105.955078 98.820831,1106.089111 
	C98.710045,1106.673950 98.383331,1107.116333 98.056625,1107.558716 
	C97.910065,1107.110596 97.763504,1106.662598 97.852554,1106.093262 
z"/>
<path fill="#747577" opacity="1.000000" stroke="none" 
	d="
M382.942383,477.780701 
	C382.240234,477.553406 381.615295,477.005829 381.119263,476.127045 
	C381.838684,476.350708 382.429169,476.905579 382.942383,477.780701 
z"/>
<path fill="#D9D9D9" opacity="1.000000" stroke="none" 
	d="
M361.840332,847.288635 
	C361.748718,847.744141 361.622894,847.985046 361.497070,848.225952 
	C361.394806,847.844055 361.272125,847.465515 361.207092,847.077393 
	C361.193665,846.997070 361.392944,846.805237 361.497223,846.802917 
	C361.598145,846.800720 361.703003,846.976501 361.840332,847.288635 
z"/>
<path fill="#D9D9D9" opacity="1.000000" stroke="none" 
	d="
M434.336853,1072.134155 
	C434.640472,1072.025391 434.974548,1072.119141 435.308655,1072.212769 
	C434.994873,1072.254028 434.681091,1072.295288 434.336853,1072.134155 
z"/>
<path fill="#D9D9D9" opacity="1.000000" stroke="none" 
	d="
M361.463654,841.528748 
	C361.439880,841.484436 361.487427,841.573059 361.463654,841.528748 
z"/>
<path fill="#D9D9D9" opacity="1.000000" stroke="none" 
	d="
M456.994446,1107.992432 
	C456.907013,1108.027710 456.825165,1108.070679 456.879272,1108.062378 
	C457.015289,1108.010986 457.000000,1108.000000 456.994446,1107.992432 
z"/>
<path fill="#E5E5F2" opacity="1.000000" stroke="none" 
	d="
M157.998993,199.887238 
	C146.524292,199.897354 135.549515,199.897354 124.088348,199.897354 
	C124.088348,195.981445 124.088348,191.766006 124.088348,186.885834 
	C157.963516,186.196808 192.017578,185.504120 226.762375,184.797394 
	C226.762375,188.835632 226.998993,192.620621 226.609192,196.339981 
	C226.501022,197.372101 224.676285,198.679108 223.398865,199.065292 
	C206.058548,204.307266 188.675537,209.407959 171.305206,214.550797 
	C170.718597,214.724487 170.154556,214.974365 168.653503,215.534393 
	C188.598602,215.534393 207.527893,215.534393 226.850159,215.534393 
	C226.850159,219.660736 226.850159,223.926086 226.850159,228.848648 
	C193.052475,229.535355 159.027802,230.226685 124.586899,230.926468 
	C124.586899,226.296783 124.586899,222.049362 124.586899,217.340454 
	C143.020538,211.866791 161.659729,206.332108 180.298904,200.797424 
	C180.225708,200.490646 180.152496,200.183884 180.079300,199.877106 
	C172.885834,199.877106 165.692383,199.877106 157.998993,199.887238 
z"/>
<path fill="#E3E4F0" opacity="1.000000" stroke="none" 
	d="
M174.756516,117.913452 
	C180.607071,117.150856 186.007355,116.421936 191.407639,115.693024 
	C191.441467,115.272903 191.475311,114.852776 191.509140,114.432655 
	C177.387726,112.557487 163.266312,110.682320 148.739563,108.753326 
	C148.739563,105.999237 148.739563,103.294273 148.739563,100.363144 
	C162.940628,97.955444 177.051285,95.563080 191.161926,93.170708 
	C191.137497,92.809738 191.113083,92.448776 191.088669,92.087807 
	C176.931366,90.721924 162.774063,89.356033 148.287231,87.958359 
	C148.287231,83.816284 148.287231,79.744553 148.287231,75.187729 
	C173.635117,78.420563 198.954330,81.649742 224.573090,84.917122 
	C224.573090,88.890938 224.573090,92.629333 224.573090,96.673439 
	C211.661789,98.924896 198.821289,101.164001 185.980774,103.403114 
	C185.971680,103.767853 185.962570,104.132591 185.953476,104.497330 
	C198.931152,106.157837 211.908829,107.818352 225.124725,109.509338 
	C225.124725,113.577690 225.124725,117.195068 225.124725,121.425858 
	C199.998138,125.620583 174.781891,129.830276 149.198578,134.101242 
	C149.198578,129.766617 149.198578,125.683220 149.198578,121.120583 
	C157.564316,120.063202 165.935272,119.005165 174.756516,117.913452 
z"/>
<path fill="#E4E4F0" opacity="1.000000" stroke="none" 
	d="
M221.138535,170.174408 
	C216.376480,171.993881 211.968597,174.687302 207.410980,174.970428 
	C194.295090,175.785263 181.117218,175.866028 167.966522,175.783630 
	C154.439087,175.698898 145.918076,165.024033 149.021835,152.574829 
	C150.570374,146.363647 154.683716,142.563919 160.703033,140.801758 
	C162.925720,140.151062 165.251938,139.548462 167.543915,139.496506 
	C174.836273,139.331207 182.134750,139.435318 190.157196,139.435318 
	C190.157196,146.674606 190.157196,154.085953 190.157196,161.593063 
	C197.119553,161.593063 203.402405,161.987564 209.579346,161.352356 
	C211.428925,161.162140 212.982819,158.096420 214.672211,156.348114 
	C212.747101,154.871307 211.005829,152.607513 208.853195,152.104614 
	C205.730530,151.375137 202.310699,151.917664 198.635788,151.917664 
	C198.635788,147.588638 198.635788,143.637650 198.635788,139.590607 
	C207.862656,136.550674 220.129272,140.021301 224.767349,147.151230 
	C229.032181,153.707336 227.589127,163.547546 221.138535,170.174408 
M164.741745,152.922913 
	C163.472504,154.789047 161.126770,156.739426 161.264175,158.495499 
	C161.380539,159.982727 164.244537,162.169159 166.111954,162.421204 
	C170.441986,163.005630 174.904678,162.607162 179.246521,162.607162 
	C179.246521,158.736771 179.246521,155.653778 179.246521,151.973511 
	C174.417450,152.222534 169.979523,152.451401 164.741745,152.922913 
z"/>
<path fill="#747577" opacity="1.000000" stroke="none" 
	d="
M441.827179,660.240173 
	C442.485352,660.058472 442.962860,660.117188 443.800415,660.148682 
	C446.432495,662.783630 447.741119,665.587341 445.223785,669.799988 
	C443.861237,666.250366 442.753906,663.365479 441.827179,660.240173 
z"/>
<path fill="#747577" opacity="1.000000" stroke="none" 
	d="
M439.780762,654.210938 
	C440.611633,654.839783 441.281677,655.680542 441.867004,656.849731 
	C441.061493,656.259766 440.340698,655.341370 439.780762,654.210938 
z"/>
<path fill="#F8F8F8" opacity="1.000000" stroke="none" 
	d="
M756.809937,1065.726318 
	C751.853943,1072.529053 744.680542,1073.475098 737.499084,1073.976685 
	C732.207825,1074.346436 726.869934,1074.049438 721.189331,1074.049438 
	C721.189331,1039.943359 721.189331,1005.897766 721.189331,970.391602 
	C730.212219,971.423706 739.249084,972.032532 748.108887,973.625793 
	C753.659790,974.624023 757.239807,978.930603 758.991638,984.291565 
	C760.171997,987.903625 761.364807,991.644165 761.646667,995.395203 
	C763.145142,1015.339783 763.829712,1035.314209 760.760986,1055.178345 
	C760.217468,1058.696411 758.275940,1061.998413 756.809937,1065.726318 
M747.007690,1022.500000 
	C746.702942,1013.360352 746.608643,1004.207214 746.023315,995.085571 
	C745.595825,988.421570 743.053467,986.601746 736.084839,987.070068 
	C736.084839,1010.923401 736.084839,1034.788208 736.084839,1058.630005 
	C742.711426,1059.133789 745.568604,1057.109131 745.976074,1050.908325 
	C746.575439,1041.789062 746.687622,1032.637573 747.007690,1022.500000 
z"/>
<path fill="#F6F6F6" opacity="1.000000" stroke="none" 
	d="
M838.425598,1029.411865 
	C839.748047,1018.745728 841.008118,1008.529358 842.300842,998.047424 
	C846.781555,998.047424 851.201660,998.047424 856.168091,998.047424 
	C854.449951,1008.227234 852.750793,1018.150757 851.104004,1028.083008 
	C848.083801,1046.298706 845.372986,1064.571289 842.002197,1082.721436 
	C839.397766,1096.745605 830.077332,1103.320679 816.949951,1101.081177 
	C816.949951,1097.361450 816.949951,1093.575562 816.949951,1089.736450 
	C828.119202,1086.512085 830.188599,1083.212402 828.224915,1071.091309 
	C824.314453,1046.954102 820.338257,1022.827393 816.314331,998.238892 
	C820.676575,998.238892 825.024048,998.238892 830.077759,998.238892 
	C831.906189,1013.239380 833.774963,1028.571045 835.643677,1043.902588 
	C836.081177,1043.891113 836.518616,1043.879639 836.956116,1043.868164 
	C837.425110,1039.199219 837.894165,1034.530396 838.425598,1029.411865 
z"/>
<path fill="#F5F5F6" opacity="1.000000" stroke="none" 
	d="
M786.752319,1017.862183 
	C785.946411,1018.923584 785.183350,1020.023010 784.367615,1020.063538 
	C780.577393,1020.251770 776.772705,1020.146851 773.060730,1020.146851 
	C770.920776,1008.978516 778.786987,997.799072 789.064697,996.876831 
	C800.693359,995.833374 808.665100,1003.177063 808.780334,1015.327393 
	C808.913025,1029.317993 808.823242,1043.310913 808.828613,1057.302734 
	C808.830750,1062.748047 808.828918,1068.193237 808.828918,1073.892822 
	C804.753845,1073.892822 800.328369,1073.892822 795.596497,1073.892822 
	C795.130188,1072.188599 794.665100,1070.489136 794.200989,1068.792725 
	C793.655029,1068.912231 793.221313,1068.872681 793.077148,1069.058228 
	C789.679260,1073.433350 785.433105,1076.409180 779.751160,1074.792358 
	C774.278687,1073.234985 772.587402,1068.375366 771.503540,1063.296265 
	C768.518921,1049.310547 774.141296,1036.740112 786.727539,1029.437744 
	C794.933411,1024.676880 796.003113,1022.750671 794.310120,1013.647339 
	C793.994080,1011.947632 792.010742,1010.557922 790.796875,1009.025085 
	C789.526306,1010.658203 788.068481,1012.185730 787.062866,1013.968323 
	C786.548096,1014.880859 786.842285,1016.249878 786.752319,1017.862183 
M790.235046,1061.148804 
	C791.650452,1059.728027 794.173950,1058.390137 794.287476,1056.871948 
	C794.752014,1050.657593 794.481262,1044.388184 794.481262,1037.861694 
	C787.101379,1041.639526 782.884399,1050.859619 785.315735,1057.813477 
	C785.825134,1059.270386 788.004639,1060.143311 790.235046,1061.148804 
z"/>
<path fill="#EFEFEB" opacity="1.000000" stroke="none" 
	d="
M693.506775,1129.041382 
	C693.500977,1125.804077 693.500977,1123.038818 693.500977,1120.005981 
	C699.643677,1119.904541 700.185974,1123.959106 700.542419,1127.942627 
	C701.213440,1135.442627 699.671509,1138.089111 693.512573,1139.362549 
	C693.512573,1135.986816 693.512573,1132.750122 693.506775,1129.041382 
z"/>
<path fill="#FEFEFE" opacity="1.000000" stroke="none" 
	d="
M234.198181,438.010742 
	C234.390915,437.883301 234.585953,437.944977 234.781006,438.006653 
	C234.587494,438.071075 234.393982,438.135498 234.198181,438.010742 
z"/>
<path fill="#16161A" opacity="1.000000" stroke="none" 
	d="
M165.141663,152.801575 
	C169.979523,152.451401 174.417450,152.222534 179.246521,151.973511 
	C179.246521,155.653778 179.246521,158.736771 179.246521,162.607162 
	C174.904678,162.607162 170.441986,163.005630 166.111954,162.421204 
	C164.244537,162.169159 161.380539,159.982727 161.264175,158.495499 
	C161.126770,156.739426 163.472504,154.789047 165.141663,152.801575 
z"/>
<path fill="#09090A" opacity="1.000000" stroke="none" 
	d="
M747.007507,1022.999939 
	C746.687622,1032.637573 746.575439,1041.789062 745.976074,1050.908325 
	C745.568604,1057.109131 742.711426,1059.133789 736.084839,1058.630005 
	C736.084839,1034.788208 736.084839,1010.923401 736.084839,987.070068 
	C743.053467,986.601746 745.595825,988.421570 746.023315,995.085571 
	C746.608643,1004.207214 746.702942,1013.360352 747.007507,1022.999939 
z"/>
<path fill="#181818" opacity="1.000000" stroke="none" 
	d="
M789.824829,1061.217041 
	C788.004639,1060.143311 785.825134,1059.270386 785.315735,1057.813477 
	C782.884399,1050.859619 787.101379,1041.639526 794.481262,1037.861694 
	C794.481262,1044.388184 794.752014,1050.657593 794.287476,1056.871948 
	C794.173950,1058.390137 791.650452,1059.728027 789.824829,1061.217041 
z"/>
</svg>